<?xml version="1.0" standalone="no"?>
<!DOCTYPE svg PUBLIC "-//W3C//DTD SVG 20010904//EN"
 "http://www.w3.org/TR/2001/REC-SVG-20010904/DTD/svg10.dtd">
<svg version="1.0" xmlns="http://www.w3.org/2000/svg"
 width="1143.000000pt" height="381.000000pt" viewBox="0 0 1143.000000 381.000000"
 preserveAspectRatio="xMidYMid meet">

<g transform="translate(0.000000,381.000000) scale(0.100000,-0.100000)"
fill="#000000" stroke="none">
<path d="M0 1905 l0 -1905 5715 0 5715 0 0 1905 0 1905 -5715 0 -5715 0 0
-1905z m9269 1173 l32 -73 19 35 c16 31 17 38 3 63 -8 16 -12 34 -10 40 2 7
10 -1 18 -16 l15 -28 12 25 c12 27 41 36 43 14 0 -10 2 -10 6 0 2 6 13 12 24
12 18 0 19 -2 4 -30 -8 -16 -15 -33 -15 -37 1 -4 10 8 20 29 17 31 24 36 55
36 19 0 35 -3 35 -6 0 -18 -105 -232 -113 -232 -6 0 -8 3 -4 6 3 4 -1 13 -9
21 -8 9 -13 22 -10 29 12 31 -22 11 -38 -22 -16 -35 -18 -36 -31 -18 -8 11
-15 27 -15 37 0 9 -4 17 -9 17 -4 0 -23 33 -41 73 -43 96 -43 97 -33 97 5 0
24 -33 42 -72z m924 -73 c-3 -9 -8 -14 -10 -11 -3 3 -2 9 2 15 9 16 15 13 8
-4z m94 9 c-3 -3 -12 -4 -19 -1 -8 3 -5 6 6 6 11 1 17 -2 13 -5z m50 0 c-3 -3
-12 -4 -19 -1 -8 3 -5 6 6 6 11 1 17 -2 13 -5z m76 -11 c-7 -2 -21 -2 -30 0
-10 3 -4 5 12 5 17 0 24 -2 18 -5z m-1926 -79 c-3 -3 -12 -4 -19 -1 -8 3 -5 6
6 6 11 1 17 -2 13 -5z m126 -1 c-7 -2 -19 -2 -25 0 -7 3 -2 5 12 5 14 0 19 -2
13 -5z m-5334 -18 c186 -49 314 -189 342 -373 18 -118 -9 -232 -79 -336 -28
-41 -28 -43 -11 -55 11 -6 19 -17 18 -24 0 -9 -2 -9 -6 1 -7 18 -23 4 -17 -16
5 -14 4 -14 -4 -2 -6 8 -9 17 -6 21 2 4 -3 13 -12 20 -15 12 -16 10 -10 -28 7
-37 5 -42 -22 -62 l-30 -21 -6 30 c-3 17 -11 30 -17 30 -7 0 -9 -12 -5 -35 6
-32 4 -35 -31 -53 -21 -11 -53 -23 -70 -27 -32 -6 -33 -5 -33 24 0 17 -4 31
-10 31 -5 0 -10 -16 -10 -35 0 -43 -14 -45 -60 -5 -34 28 -100 42 -100 21 0
-5 8 -7 19 -4 12 3 31 -7 52 -26 l34 -30 -66 -1 c-69 0 -99 14 -75 36 9 8 16
7 26 -4 13 -14 12 -15 -3 -9 -9 3 -17 2 -17 -3 0 -6 11 -10 25 -10 26 0 26 0
8 24 -13 17 -36 28 -78 37 -94 20 -206 81 -261 142 -231 256 -112 650 223 742
65 18 225 18 292 0z m7007 -102 c-5 -5 -36 86 -35 101 0 6 9 -13 20 -43 10
-30 17 -56 15 -58z m-9276 -4 l0 -91 -87 -101 c-49 -55 -136 -157 -195 -226
l-106 -126 204 -3 204 -2 0 -98 c0 -53 -5 -104 -10 -112 -8 -13 -60 -15 -347
-18 -186 -2 -360 0 -388 5 l-50 8 -2 85 -3 85 121 140 c66 77 153 178 193 225
l73 85 -56 0 c-149 0 -303 13 -312 26 -5 8 -9 58 -9 112 l0 97 385 0 385 0 0
-91z m749 -16 c-1 -60 1 -118 5 -130 9 -28 -5 -30 -22 -3 -7 11 -20 20 -30 20
-14 -1 -12 -5 8 -22 16 -14 19 -19 8 -15 -11 4 -18 2 -18 -6 0 -7 -6 -1 -13
13 -11 22 -18 25 -58 22 -24 -2 -48 -8 -53 -13 -13 -11 -29 -12 -22 0 8 12
-72 21 -119 12 -22 -4 -55 -6 -72 -4 l-33 3 0 -50 0 -50 185 0 186 0 -3 -113
c-2 -85 0 -118 11 -130 12 -15 11 -17 -3 -17 -9 0 -15 3 -15 8 4 22 -3 33 -18
31 -10 -1 -20 0 -23 1 -11 6 -98 5 -95 0 2 -3 0 -12 -6 -20 -7 -12 -9 -11 -9
6 0 20 -5 21 -105 20 l-105 -1 0 -52 0 -53 215 0 215 0 0 -105 0 -105 -26 0
c-15 0 -33 -8 -41 -17 -8 -10 -12 -13 -9 -6 5 9 -65 12 -281 12 -157 1 -304 4
-325 7 l-38 7 0 428 0 429 356 0 356 0 -3 -107z m661 83 c114 -49 178 -119
206 -228 26 -102 5 -187 -79 -311 -10 -15 -9 -21 7 -33 17 -12 17 -14 4 -14
-9 0 -19 4 -22 9 -5 8 -56 3 -56 -5 0 -2 34 -55 75 -117 41 -63 75 -120 75
-126 0 -6 -9 -11 -20 -11 -18 0 -25 -11 -21 -33 1 -5 -3 -6 -8 -3 -5 4 -13 -3
-16 -15 -4 -11 -10 -18 -13 -14 -7 7 -8 12 -11 41 -1 12 -13 14 -72 11 -38 -2
-72 0 -75 5 -3 4 -17 8 -32 8 -22 0 -35 12 -72 67 -93 137 -96 141 -124 136
-14 -3 -23 -9 -20 -14 3 -5 10 -6 16 -3 7 5 8 2 4 -5 -6 -9 -12 -8 -26 4 -18
16 -19 12 -25 -84 -7 -98 -8 -101 -32 -101 -13 0 -22 -3 -20 -7 6 -9 -148 -6
-205 3 l-38 6 0 430 0 429 278 -3 c245 -3 282 -6 322 -22z m7270 -31 c-10 -12
-10 -18 0 -30 7 -9 11 -18 8 -20 -3 -3 -11 1 -18 10 -11 14 -14 13 -26 -2 -12
-16 -13 -14 -14 20 0 33 3 38 19 32 11 -3 22 -1 26 5 4 6 9 9 12 6 3 -3 0 -12
-7 -21z m-601 2 c11 17 11 17 22 0 10 -18 11 -18 25 0 16 21 18 5 4 -31 -10
-28 -30 -35 -30 -11 0 8 -4 15 -10 15 -5 0 -10 -7 -10 -15 0 -24 -20 -17 -30
11 -14 36 -12 52 4 31 14 -18 15 -18 25 0z m131 3 c0 -5 -10 -10 -22 -11 -22
0 -22 -1 -3 -9 17 -7 17 -9 3 -9 -26 -1 -22 -19 5 -24 16 -3 13 -5 -10 -6 -31
-1 -33 1 -33 34 0 32 2 35 30 35 17 0 30 -4 30 -10z m40 -7 c10 -17 10 -17 20
0 17 27 30 20 30 -15 l1 -33 14 33 c17 39 28 40 43 7 17 -38 15 -47 -9 -33
-17 10 -23 10 -26 1 -7 -20 -43 -16 -43 5 0 14 -2 14 -9 3 -8 -13 -12 -13 -27
0 -16 12 -17 12 -11 -3 3 -10 2 -18 -3 -18 -6 0 -10 16 -10 35 0 38 13 45 30
18z m215 -18 c0 -27 -4 -30 -32 -33 -32 -3 -33 -2 -33 33 0 35 1 36 32 33 28
-3 32 -7 33 -33z m63 10 c17 -37 15 -47 -8 -33 -17 11 -22 10 -30 -2 -16 -25
-19 -6 -5 28 17 39 28 40 43 7z m52 10 c7 -8 16 -15 21 -15 5 0 6 7 3 15 -4 8
-1 15 5 15 6 0 11 -17 11 -37 l0 -36 -25 23 -25 23 0 -22 c0 -12 -4 -19 -10
-16 -12 8 -13 65 -1 65 5 0 14 -7 21 -15z m-1340 -18 c0 -2 -10 -12 -22 -23
l-23 -19 19 23 c18 21 26 27 26 19z m2018 -77 c0 -8 -6 1 -13 20 -7 19 -13 42
-13 50 0 8 6 -1 13 -20 7 -19 13 -42 13 -50z m9 -42 c-3 -8 -6 -5 -6 6 -1 11
2 17 5 13 3 -3 4 -12 1 -19z m174 5 c13 -16 12 -17 -3 -4 -10 7 -18 15 -18 17
0 8 8 3 21 -13z m-2416 -13 c10 -11 16 -20 13 -20 -3 0 -13 9 -23 20 -10 11
-16 20 -13 20 3 0 13 -9 23 -20z m2536 -107 c13 -16 12 -17 -3 -4 -10 7 -18
15 -18 17 0 8 8 3 21 -13z m30 0 c13 -16 12 -17 -3 -4 -10 7 -18 15 -18 17 0
8 8 3 21 -13z m-6621 -83 l0 -40 -50 0 -50 0 0 -150 0 -150 -45 0 -45 0 0 150
0 150 -55 0 -55 0 0 33 c0 19 3 37 7 40 3 4 71 7 150 7 l143 0 0 -40z m229 29
c67 -14 101 -53 101 -115 0 -49 -20 -98 -47 -113 -15 -8 -16 -13 -5 -33 21
-36 61 -83 67 -77 3 4 38 82 78 175 l73 169 41 3 40 3 41 -93 c75 -172 122
-281 122 -285 0 -2 -21 -3 -46 -3 -44 0 -46 2 -62 40 l-17 40 -76 0 -77 0 -16
-40 -16 -40 -94 0 -93 0 -37 55 c-30 46 -41 55 -66 55 -30 0 -30 -1 -30 -55
l0 -55 -45 0 -45 0 0 183 c0 101 3 187 7 190 10 11 147 8 202 -4z m693 -107
l87 -114 3 114 3 113 43 3 42 3 0 -190 0 -191 -44 0 -44 0 -83 110 -84 110 -3
-110 -3 -110 -44 0 -45 0 0 183 c0 101 3 187 7 191 4 4 23 6 42 4 32 -3 44
-14 123 -116z m466 98 c23 -10 42 -23 42 -27 0 -4 -11 -21 -23 -37 -23 -28
-25 -29 -48 -13 -29 21 -105 23 -112 3 -9 -24 15 -43 77 -61 63 -18 101 -48
112 -89 21 -86 -66 -158 -171 -141 -42 6 -125 50 -125 65 0 5 10 21 23 35 l22
27 52 -27 c55 -29 96 -29 106 0 9 22 -17 42 -76 59 -30 9 -66 25 -80 36 -53
42 -44 134 17 171 41 25 127 25 184 -1z m350 -22 l3 -38 -90 0 -91 0 0 -40 0
-40 86 0 85 0 -3 -37 -3 -38 -82 -3 -83 -3 0 -69 0 -70 -45 0 -45 0 0 190 0
191 133 -3 132 -3 3 -37z m310 0 l-3 -43 -92 -3 -93 -3 0 -29 0 -30 85 0 85 0
0 -40 0 -40 -85 0 -85 0 0 -35 0 -35 95 0 95 0 0 -40 0 -40 -140 0 -140 0 0
190 0 190 141 0 140 0 -3 -42z m252 33 c64 -13 100 -56 100 -119 0 -47 -29
-112 -50 -112 -18 0 -11 -21 23 -69 54 -74 54 -71 -5 -71 -53 0 -53 0 -91 55
-32 46 -43 55 -68 55 -29 0 -29 -1 -29 -55 l0 -55 -45 0 -45 0 0 190 0 190 83
0 c45 -1 102 -5 127 -9z m538 -33 l3 -38 -90 0 -91 0 0 -40 0 -40 86 0 85 0
-3 -37 -3 -38 -82 -3 -83 -3 0 -69 0 -70 -45 0 -45 0 0 190 0 191 133 -3 132
-3 3 -37z m312 -3 l0 -45 -95 0 -95 0 0 -30 0 -30 85 0 85 0 0 -40 0 -40 -85
0 -85 0 0 -35 0 -35 95 0 95 0 0 -40 0 -40 -140 0 -140 0 0 190 0 190 140 0
140 0 0 -45z m318 -2 l3 -43 -95 0 -96 0 0 -30 0 -30 85 0 85 0 0 -40 0 -40
-85 0 -85 0 0 -35 0 -35 95 0 95 0 0 -40 0 -40 -140 0 -140 0 0 190 0 191 138
-3 137 -3 3 -42z m270 27 c23 -10 42 -23 42 -27 0 -4 -11 -21 -23 -37 -23 -28
-25 -29 -48 -13 -30 21 -105 23 -113 2 -8 -22 18 -42 79 -59 73 -22 105 -51
111 -101 11 -82 -67 -144 -165 -131 -45 6 -131 49 -131 66 0 5 10 21 23 35
l22 27 52 -27 c55 -29 96 -29 106 0 9 22 -17 42 -76 59 -30 9 -66 25 -80 36
-53 42 -44 134 17 171 41 25 127 25 184 -1z m477 -88 c-13 -12 -95 -43 -95
-37 0 6 79 43 95 44 6 1 6 -2 0 -7z m667 -39 c9 -10 59 -104 112 -210 l96
-192 -48 -14 c-26 -8 -38 -15 -26 -16 12 -1 41 6 64 14 48 17 62 19 41 6 -16
-10 -6 -31 15 -31 22 0 11 -24 -12 -28 -10 -2 -32 -10 -49 -17 -16 -7 -41 -15
-55 -18 -14 -3 -36 -8 -50 -12 -14 -4 -59 -11 -100 -15 -41 -4 -101 -15 -134
-23 l-58 -16 -114 234 c-63 128 -114 240 -114 248 0 27 26 37 186 71 185 40
225 43 246 19z m1434 -18 c169 -35 194 -45 194 -74 -1 -9 -65 -149 -143 -311
-139 -286 -144 -295 -171 -293 -38 3 -248 70 -315 101 -30 13 -84 35 -120 49
-36 14 -71 29 -78 35 -17 14 -9 65 14 91 11 12 18 29 16 37 -4 13 -3 13 5 1
17 -24 103 -52 119 -39 11 9 12 7 7 -8 -20 -56 25 23 116 206 57 113 110 213
118 223 21 24 49 22 238 -18z m387 20 c-3 -9 -8 -14 -10 -11 -3 3 -2 9 2 15 9
16 15 13 8 -4z m-2593 -5 c0 -5 -5 -10 -11 -10 -5 0 -7 5 -4 10 3 6 8 10 11
10 2 0 4 -4 4 -10z m-6440 -58 c0 -13 -12 -22 -22 -16 -10 6 -1 24 13 24 5 0
9 -4 9 -8z m9047 -24 c-3 -8 -6 -5 -6 6 -1 11 2 17 5 13 3 -3 4 -12 1 -19z
m-1179 -61 c25 -5 31 -4 26 6 -5 7 0 6 12 -3 10 -8 21 -16 23 -17 2 -2 -10 -1
-27 1 -18 2 -32 0 -32 -4 0 -4 -30 -12 -67 -18 -52 -7 -63 -11 -46 -17 l23 -7
-20 -28 c-11 -16 -20 -32 -20 -37 0 -15 -33 -38 -72 -50 -44 -13 -46 -11 -15
18 12 12 17 19 10 15 -19 -10 -28 16 -10 29 11 8 13 15 6 22 -14 14 40 73 68
73 12 0 37 9 55 20 18 11 37 16 42 11 6 -5 26 -11 44 -14z m42 -37 c0 -5 -9
-14 -20 -20 -29 -15 -15 -30 26 -30 60 0 9 -40 -69 -54 -29 -5 -39 -4 -43 9
-4 9 1 22 12 30 15 12 16 14 4 15 -9 0 -22 -6 -29 -12 -11 -11 -11 -9 -2 9 13
25 46 46 64 40 6 -2 18 2 25 10 16 15 32 17 32 3z m-5980 -64 c0 -3 -4 -8 -10
-11 -5 -3 -10 -1 -10 4 0 6 5 11 10 11 6 0 10 -2 10 -4z m4625 -137 c-5 -38
-4 -54 6 -61 11 -7 9 -8 -4 -4 -10 3 -23 6 -28 6 -5 0 -9 5 -9 11 0 6 -9 24
-21 40 -18 26 -26 29 -64 26 -39 -3 -43 -1 -34 15 8 15 23 18 85 18 l76 0 -7
-51z m2823 -26 l-1 -48 -4 42 c-4 39 -7 42 -36 46 -31 4 -31 4 6 5 l37 2 -2
-47z m-8897 -16 c-7 -7 -12 -6 -16 6 -3 9 -8 25 -11 35 -4 13 0 11 17 -6 15
-17 18 -27 10 -35z m527 40 c21 -25 18 -41 -10 -42 -16 -1 -24 3 -20 10 4 5 5
18 4 28 -4 20 11 23 26 4z m6437 -5 c-3 -3 -11 0 -18 7 -9 10 -8 11 6 5 10 -3
15 -9 12 -12z m1778 11 c-29 -2 -77 -2 -105 0 -29 2 -6 3 52 3 58 0 81 -1 53
-3z m-8443 -10 c1 6 6 2 13 -11 7 -12 16 -20 20 -16 4 4 1 14 -6 22 -11 13 -9
14 11 1 12 -8 22 -17 22 -20 0 -13 -33 -20 -44 -9 -12 12 -29 14 -22 2 3 -5
-1 -9 -9 -9 -11 0 -12 4 -4 14 8 9 8 13 1 13 -6 0 -13 -4 -16 -9 -7 -10 -44
-3 -52 10 -3 5 7 4 22 -1 22 -9 25 -8 21 4 -5 12 -1 13 18 6 18 -7 25 -6 25 3z
m178 -29 c-11 -11 -18 -13 -23 -5 -4 7 -1 10 7 9 7 -2 12 5 11 16 -1 13 2 15
10 7 8 -8 7 -15 -5 -27z m6558 27 c-8 -12 -46 -21 -46 -11 0 5 8 11 18 13 29
8 33 7 28 -2z m1502 2 c-14 -3 -18 -19 -21 -81 l-3 -77 -2 83 c-2 79 -1 82 21
81 16 -1 17 -3 5 -6z m-8871 -18 c0 -10 -6 -14 -14 -10 -8 3 -17 5 -19 5 -3 0
-2 5 1 10 10 16 32 12 32 -5z m133 11 c0 -2 -7 -7 -16 -10 -8 -3 -12 -2 -9 4
6 10 25 14 25 6z m167 -12 c-3 -3 -12 -4 -19 -1 -8 3 -5 6 6 6 11 1 17 -2 13
-5z m7153 -4 c11 -7 8 -10 -16 -10 -17 0 -37 -7 -44 -15 -7 -8 -22 -15 -33
-15 -20 0 -20 1 3 25 24 26 63 32 90 15z m-1190 -15 c11 -13 10 -14 -4 -9 -9
3 -16 10 -16 15 0 13 6 11 20 -6z m91 -50 l1 -30 10 28 c16 43 32 33 24 -15
-4 -23 -9 -44 -10 -46 -2 -2 -38 -6 -80 -9 -70 -5 -76 -4 -75 13 2 31 17 81
18 61 1 -13 6 -17 20 -12 18 5 19 3 11 -25 -7 -23 -5 -30 6 -30 8 0 14 9 14
20 0 11 5 20 10 20 6 0 10 -7 10 -15 0 -8 5 -15 10 -15 25 0 0 76 -27 83 -12
3 -8 5 10 6 15 0 27 7 27 14 0 26 20 -19 21 -48z m2813 33 c3 -13 6 -35 6 -49
0 -24 -4 -27 -47 -32 -27 -3 -49 -4 -51 -2 -1 1 -5 25 -9 54 l-6 51 50 0 c44
0 51 -3 57 -22z m73 -195 c-2 -32 -3 -8 -3 52 0 61 1 87 3 58 2 -29 2 -78 0
-110z m-2903 44 c-1 -9 2 -17 7 -17 5 0 9 5 9 10 0 6 11 10 25 10 20 0 24 -5
23 -24 -2 -27 -34 -42 -54 -25 -8 7 -14 7 -19 -1 -6 -10 -57 -14 -67 -5 -8 8
3 65 13 65 5 0 6 -14 2 -32 -4 -22 -3 -29 5 -24 7 4 12 21 12 37 0 26 3 30 23
27 14 -2 21 -9 21 -21z m151 6 c-5 -15 -4 -16 6 -5 18 17 34 15 19 -3 -7 -8
-10 -21 -7 -28 4 -10 -5 -14 -28 -15 -27 -1 -34 3 -38 21 -3 22 -4 22 -15 -3
l-11 -25 0 28 c-1 15 1 27 3 27 2 0 11 3 20 6 11 4 19 -2 25 -17 10 -24 10
-24 10 4 1 15 6 27 12 27 6 0 8 -7 4 -17z m2438 -176 l62 -3 -67 -2 -68 -2 2
103 2 102 3 -97 4 -97 62 -4z m-2795 176 c-21 -5 -24 -23 -5 -23 8 0 9 -3 1
-8 -6 -4 -16 -16 -22 -27 -11 -19 -11 -18 -12 7 0 41 10 58 34 57 16 -1 17 -2
4 -6z m30 -28 c-2 -36 -18 -50 -18 -16 0 21 10 51 16 51 3 0 4 -16 2 -35z m28
-12 l-15 -28 -1 27 c0 14 6 28 13 31 19 7 20 1 3 -30z m52 7 c1 -25 -3 -30
-21 -29 -19 1 -20 2 -3 6 14 4 16 7 6 13 -7 4 -10 15 -7 24 10 26 24 18 25
-14z m1211 -138 c54 -109 82 -176 80 -192 -4 -23 -20 -31 -179 -87 -96 -34
-187 -62 -202 -63 -34 0 -36 4 -132 198 l-76 153 26 9 c14 6 29 10 34 10 15 0
264 96 305 118 22 12 45 21 50 22 6 0 48 -75 94 -168z m612 119 c57 -27 150
-63 207 -80 56 -17 102 -35 102 -40 0 -14 -142 -304 -158 -323 -8 -10 -27 -18
-41 -17 -14 0 -105 28 -201 62 -159 56 -175 64 -179 87 -2 16 26 83 80 192 46
93 84 168 85 168 0 0 48 -22 105 -49z m976 28 c6 -20 25 -27 21 -7 -2 6 5 14
15 16 12 2 17 -3 18 -20 l2 -23 4 24 c4 18 10 22 28 18 14 -2 27 1 30 7 3 8 7
7 11 -1 3 -7 11 -10 17 -7 7 2 13 -6 13 -21 1 -14 -2 -25 -7 -25 -5 0 -9 6
-10 13 0 8 -2 8 -6 -2 -5 -11 -7 -11 -14 0 -6 10 -9 11 -9 2 0 -20 -20 -15
-21 5 0 14 -2 14 -8 -3 -6 -16 -19 -20 -63 -22 -51 -2 -55 0 -65 25 l-11 27
-1 -27 c-1 -35 -21 -37 -21 -3 0 14 -5 25 -11 25 -5 0 -8 4 -4 9 3 6 24 9 46
9 32 0 43 -5 46 -19z m-117 1 c-13 -8 -12 -10 3 -10 10 0 17 -8 17 -20 0 -15
-7 -20 -25 -20 -20 0 -25 5 -25 23 0 28 7 37 29 37 14 0 14 -2 1 -10z m-10084
-61 c-3 -34 -6 -73 -6 -85 0 -15 -6 -24 -15 -24 -13 0 -15 10 -10 63 9 86 14
107 27 107 7 0 9 -19 4 -61z m54 46 c0 -8 -7 -15 -15 -15 -8 0 -15 7 -15 15 0
8 7 15 15 15 8 0 15 -7 15 -15z m230 0 c0 -8 -7 -15 -15 -15 -8 0 -15 7 -15
15 0 8 7 15 15 15 8 0 15 -7 15 -15z m307 1 c-3 -8 -9 -45 -12 -83 l-7 -70
-46 1 c-41 1 -48 4 -56 29 -13 35 18 80 60 87 20 4 30 12 32 28 2 12 10 22 19
22 9 0 13 -6 10 -14z m113 7 c-16 -6 -30 -23 -30 -35 0 -5 26 -9 58 -9 31 -1
47 -4 34 -6 -25 -5 -42 -38 -42 -84 0 -16 -5 -29 -12 -29 -9 0 -12 16 -10 55
3 44 1 55 -11 55 -12 0 -17 -15 -22 -57 -7 -75 -17 -105 -34 -111 -10 -3 -12
0 -7 14 5 11 10 48 13 83 5 48 2 65 -8 72 -11 7 -11 9 4 9 9 0 17 6 17 13 0
20 21 37 45 36 14 0 16 -2 5 -6z m858 -4 c-10 -5 -18 -16 -18 -24 0 -7 8 -16
18 -18 13 -4 13 -5 -4 -6 -20 -1 -22 -8 -26 -71 -2 -48 -9 -75 -21 -87 -20
-20 -32 -12 -19 14 5 10 13 46 17 80 l7 62 -38 -2 c-45 -2 -54 -19 -19 -35 21
-10 26 -18 23 -40 -3 -23 -8 -27 -40 -30 -21 -2 -38 1 -38 7 0 5 12 9 26 8 36
-3 42 20 9 35 -20 9 -25 18 -23 37 3 23 8 26 49 29 38 2 48 7 57 27 8 16 20
25 34 25 21 -1 21 -2 6 -11z m598 -50 c-3 -34 -6 -73 -6 -85 0 -15 -6 -24 -15
-24 -13 0 -15 10 -10 63 9 86 14 107 27 107 7 0 9 -19 4 -61z m49 14 c-14
-108 -17 -123 -29 -123 -9 0 -9 21 -2 85 7 62 13 85 23 85 11 0 13 -11 8 -47z
m85 19 c0 -26 3 -28 29 -24 22 3 32 -1 40 -17 11 -20 12 -20 31 -1 12 12 33
20 51 20 31 0 31 -1 25 -37 -3 -21 -6 -47 -6 -58 0 -17 -7 -21 -40 -22 -28 -1
-42 3 -49 15 -9 15 -11 15 -28 -1 -12 -10 -36 -17 -58 -17 l-38 0 7 46 c3 26
6 64 6 85 0 28 4 39 15 39 10 0 15 -10 15 -28z m344 -24 l-5 -53 24 26 c20 22
33 27 80 28 34 0 57 -3 57 -9 0 -6 -12 -9 -26 -8 -36 4 -41 -16 -9 -30 21 -10
26 -18 23 -40 -3 -25 -7 -27 -56 -30 -49 -3 -53 -1 -63 25 -10 27 -11 27 -24
9 -8 -10 -16 -23 -18 -29 -1 -5 -7 -8 -12 -6 -16 7 4 169 21 169 10 0 12 -12
8 -52z m236 37 c0 -8 -7 -15 -15 -15 -8 0 -15 7 -15 15 0 8 7 15 15 15 8 0 15
-7 15 -15z m626 -22 c-3 -21 -8 -60 -11 -86 l-6 -48 -42 3 -42 3 -3 53 c-4 60
-22 71 -22 13 0 -44 -8 -71 -21 -71 -5 0 -9 25 -9 55 0 30 -3 55 -7 55 -21 0
-43 -37 -43 -72 0 -28 -4 -38 -16 -38 -14 0 -15 7 -10 38 3 20 6 47 6 58 0 20
5 22 54 22 58 -1 76 6 76 28 0 8 5 14 10 14 6 0 10 -9 10 -20 0 -12 7 -20 18
-21 16 -1 16 -2 0 -6 -37 -9 -38 -95 -1 -98 20 -1 22 5 28 77 5 59 11 78 22
78 11 0 14 -9 9 -37z m-3764 -42 c-4 -65 -3 -69 18 -76 34 -11 51 14 57 84 4
44 10 61 20 61 20 0 8 -96 -16 -130 -29 -40 -93 -40 -106 0 -10 31 5 130 20
130 9 0 11 -18 7 -69z m595 49 c-4 -15 0 -20 16 -21 22 -2 21 -2 0 -6 -16 -3
-23 -11 -23 -28 0 -13 -2 -29 -5 -37 -7 -20 10 -39 28 -32 10 4 17 17 17 33 0
58 67 96 99 57 17 -20 -12 -46 -50 -46 -32 0 -34 -3 -18 -31 8 -16 16 -19 41
-14 21 5 28 4 24 -4 -9 -14 -73 -14 -81 -1 -5 8 -11 7 -20 0 -8 -6 -24 -10
-37 -8 -21 3 -23 8 -23 53 0 28 -4 53 -10 57 -6 5 -5 8 3 8 6 0 12 9 12 20 0
12 7 20 16 20 11 0 15 -6 11 -20z m743 0 c0 -12 7 -20 18 -21 13 0 14 -2 2 -6
-22 -9 -30 -24 -30 -60 0 -65 40 -47 47 21 6 45 6 46 42 46 35 0 36 0 11 -13
-21 -10 -26 -21 -28 -60 l-3 -48 -42 3 -42 3 -3 53 c-2 32 -8 52 -15 52 -7 0
-4 5 6 11 9 5 17 17 17 24 0 8 5 15 10 15 6 0 10 -9 10 -20z m750 0 c0 -12 7
-20 18 -21 16 -1 16 -2 0 -6 -34 -9 -39 -101 -5 -95 9 2 17 -2 17 -8 0 -6 -12
-10 -27 -8 -26 3 -28 7 -31 56 -2 32 -8 52 -15 52 -7 0 -4 5 6 11 9 5 17 17
17 24 0 8 5 15 10 15 6 0 10 -9 10 -20z m1297 0 c-4 -15 0 -20 16 -21 22 -2
21 -2 0 -6 -16 -3 -23 -11 -23 -28 0 -13 -2 -29 -5 -37 -3 -7 -1 -19 3 -26 11
-16 42 -5 36 13 -7 18 21 71 41 79 9 3 28 6 42 6 24 0 25 -2 19 -37 -3 -21 -6
-47 -6 -59 0 -19 -6 -20 -77 -20 l-78 1 0 52 1 52 -35 -2 c-42 -2 -50 -20 -16
-35 21 -10 26 -18 23 -40 -3 -23 -8 -27 -40 -30 -21 -2 -38 1 -38 7 0 5 12 9
26 8 36 -3 42 20 9 35 -20 9 -25 18 -23 37 3 23 8 26 51 29 39 3 47 6 47 23 0
11 7 19 16 19 11 0 15 -6 11 -20z m-3169 -82 c2 -46 0 -58 -12 -58 -12 0 -14
9 -9 49 4 33 2 51 -7 56 -19 12 -41 -18 -47 -64 -9 -65 -29 -51 -25 18 l4 60
46 -2 47 -2 3 -57z m92 48 c0 -42 -14 -106 -24 -106 -10 0 -11 76 -1 108 6 16
25 15 25 -2z m186 -12 c8 -30 -4 -94 -16 -94 -6 0 -10 25 -10 56 0 40 -4 55
-12 52 -18 -6 -38 -48 -38 -80 0 -18 -5 -28 -15 -28 -12 0 -14 8 -9 40 4 21 4
47 0 56 -6 15 -8 15 -26 -1 -13 -12 -20 -31 -20 -57 0 -28 -4 -38 -16 -38 -14
0 -15 7 -10 38 3 20 6 46 6 58 0 20 6 21 80 22 77 0 80 -1 86 -24z m44 12 c0
-42 -14 -106 -24 -106 -10 0 -11 76 -1 108 6 16 25 15 25 -2z m607 -2 c8 -21
-21 -44 -55 -44 -19 0 -23 -5 -20 -22 2 -19 9 -23 35 -22 18 1 30 -2 27 -7 -3
-5 -21 -9 -39 -9 -54 0 -71 47 -34 94 24 30 76 36 86 10z m102 2 c17 -20 -12
-46 -50 -46 -32 0 -34 -3 -18 -31 8 -16 16 -19 41 -14 21 5 28 4 24 -4 -9 -15
-69 -14 -84 1 -17 17 -15 59 4 86 17 25 65 30 83 8z m297 -23 c-3 -21 -6 -47
-6 -58 0 -17 -7 -21 -40 -22 -50 -2 -68 23 -50 68 15 35 35 48 74 49 28 0 28
-1 22 -37z m112 -25 c2 -46 0 -58 -12 -58 -12 0 -14 9 -9 49 4 33 2 51 -7 56
-19 12 -41 -18 -47 -64 -9 -65 -29 -51 -25 18 l4 60 46 -2 47 -2 3 -57z m269
46 c8 -21 -21 -44 -55 -44 -19 0 -23 -5 -20 -22 2 -19 9 -23 35 -22 18 1 30
-2 27 -7 -3 -5 -21 -9 -39 -9 -54 0 -71 47 -34 94 24 30 76 36 86 10z m63 3
c-21 -10 -26 -21 -28 -60 -2 -35 -7 -47 -19 -47 -13 0 -14 7 -9 38 3 20 6 47
6 60 0 19 5 22 38 22 36 0 36 -1 12 -13z m240 -6 c16 -30 12 -59 -10 -81 -24
-24 -57 -26 -82 -3 -24 21 -23 44 3 77 25 32 73 36 89 7z m152 -40 c-3 -40 -8
-61 -18 -65 -8 -3 -14 -2 -14 2 0 4 -15 7 -32 7 -29 0 -33 3 -36 31 -4 43 30
84 71 84 l32 0 -3 -59z m466 -3 c2 -46 0 -58 -12 -58 -12 0 -14 9 -9 49 4 33
2 51 -7 56 -19 12 -41 -18 -47 -64 -9 -65 -29 -51 -25 18 l4 60 46 -2 47 -2 3
-57z m282 48 c0 -42 -14 -106 -24 -106 -10 0 -11 76 -1 108 6 16 25 15 25 -2z
m118 -25 c2 -19 1 -44 -2 -57 -11 -43 -26 -25 -26 31 0 30 -3 55 -7 55 -21 0
-43 -37 -43 -72 0 -28 -4 -38 -16 -38 -14 0 -15 7 -10 38 3 20 6 46 6 58 0 18
6 21 48 20 46 -1 47 -2 50 -35z m557 -2 c8 -44 15 -44 31 4 11 31 35 50 33 25
0 -7 -17 -47 -37 -88 -25 -51 -43 -76 -57 -78 -19 -4 -19 -3 3 17 26 26 27 35
7 91 -19 53 -19 70 -1 70 9 0 17 -16 21 -41z m3893 22 c12 -1 22 -5 22 -10 0
-10 -38 -7 -48 4 -3 2 -11 0 -19 -6 -10 -9 -13 -8 -13 4 0 9 7 14 18 12 9 -2
27 -4 40 -4z m102 1 c0 -5 -16 -9 -35 -9 -19 0 -35 4 -35 9 0 4 16 8 35 8 19
0 35 -4 35 -8z m2877 -64 c-3 -8 -6 -5 -6 6 -1 11 2 17 5 13 3 -3 4 -12 1 -19z
m-6789 -20 c-7 -19 -38 -22 -38 -4 0 10 9 16 21 16 12 0 19 -5 17 -12z m6715
5 c-29 -2 -78 -2 -110 0 -32 2 -8 3 52 3 61 0 87 -1 58 -3z m-9018 -204 c-208
-43 -695 -87 -1035 -92 -213 -4 -508 7 -554 20 l-28 9 26 31 c15 18 37 34 49
36 12 2 373 4 802 4 444 1 763 -3 740 -8z m6336 -196 c13 -16 12 -17 -3 -4
-17 13 -22 21 -14 21 2 0 10 -8 17 -17z m2259 -3 c-8 -5 -22 -10 -30 -10 -13
0 -13 1 0 10 8 5 22 10 30 10 13 0 13 -1 0 -10z m-9567 -36 c26 -14 27 -15 11
-39 -18 -28 -25 -30 -41 -14 -20 20 -84 6 -106 -23 -42 -57 10 -139 78 -122
21 5 25 12 25 44 0 37 1 39 37 42 32 3 38 7 45 33 10 41 58 85 102 95 135 30
231 -129 138 -228 -74 -79 -211 -49 -242 54 -8 28 -8 27 -9 -13 -1 -49 -30
-78 -89 -88 -135 -22 -221 145 -124 239 49 46 109 53 175 20z m933 -5 c18 -11
39 -35 48 -53 70 -148 -125 -274 -233 -151 -27 31 -31 44 -31 90 0 48 4 60 33
91 50 55 116 63 183 23z m8581 25 c-8 -9 -108 -43 -122 -43 -11 0 105 48 119
48 5 1 6 -2 3 -5z m-8958 -84 c34 -44 63 -80 64 -80 2 0 3 35 2 78 l0 77 33 3
32 3 0 -135 0 -136 -33 0 c-30 0 -39 8 -88 75 -29 41 -58 75 -62 75 -5 0 -6
-34 -2 -75 l7 -75 -36 0 -36 0 0 135 0 135 28 0 c24 0 39 -13 91 -80z m532 1
l25 -73 22 76 c22 75 23 76 56 76 33 0 34 -1 51 -65 10 -36 21 -68 25 -70 3
-2 16 27 29 66 22 68 23 69 57 69 19 0 34 -2 34 -4 0 -2 -21 -63 -46 -136 -44
-124 -48 -131 -72 -128 -22 3 -29 13 -52 88 l-27 85 -27 -88 c-26 -83 -29 -88
-53 -85 -23 3 -30 15 -69 127 -24 68 -44 128 -44 133 0 5 15 8 33 6 30 -3 33
-7 58 -77z m6250 62 c13 -16 12 -17 -3 -4 -17 13 -22 21 -14 21 2 0 10 -8 17
-17z m65 -35 l29 -33 -32 29 c-31 28 -38 36 -30 36 2 0 16 -15 33 -32z m2046
-9 c-24 -11 -49 -18 -55 -16 -7 2 8 11 33 20 62 21 74 19 22 -4z m-142 -9 c-8
-5 -22 -9 -30 -9 -10 0 -8 3 5 9 27 12 43 12 25 0z m-1829 -47 c13 -16 12 -17
-3 -4 -10 7 -18 15 -18 17 0 8 8 3 21 -13z m69 -50 c0 -7 -39 17 -46 28 -3 6
5 3 20 -6 14 -10 26 -19 26 -22z m994 -32 c65 -11 119 -21 121 -23 8 -10 12
-338 4 -338 -6 0 -7 -5 -3 -11 5 -9 -1 -10 -20 -5 -19 5 -26 3 -21 -4 5 -7 0
-11 -11 -9 -11 1 -30 0 -44 -4 -14 -3 -51 -11 -83 -17 -35 -7 -61 -18 -66 -29
-9 -16 -15 -16 -110 3 -59 11 -102 25 -105 32 -6 17 -29 364 -24 368 9 7 196
54 218 55 14 1 78 -8 144 -18z m778 -9 c-19 -31 -100 -126 -87 -102 11 19 97
130 101 130 2 0 -4 -13 -14 -28z m-1612 -58 c30 -66 39 -95 19 -61 -18 31 -59
127 -54 127 3 0 18 -30 35 -66z m1480 -95 c-39 -32 -172 -119 -181 -119 -19 0
-6 10 51 41 33 17 77 47 97 65 21 18 43 33 48 33 6 0 -1 -9 -15 -20z m-270
-149 c-8 -5 -22 -9 -30 -9 -10 0 -8 3 5 9 27 12 43 12 25 0z m-8796 -249 c31
-74 56 -135 56 -137 0 -2 -17 -4 -39 -4 -37 0 -39 2 -60 52 l-22 52 -24 -52
c-23 -50 -26 -52 -64 -52 -38 0 -41 3 -59 42 l-18 42 -18 -44 -18 -45 -24 46
-23 47 35 83 c20 46 40 88 44 92 4 4 22 -27 40 -70 18 -43 36 -81 40 -86 3 -4
24 35 46 87 21 52 42 92 46 88 3 -4 31 -67 62 -141z m8432 40 c0 -13 -14 -17
-68 -19 -40 -2 -68 1 -68 7 0 15 23 26 28 12 3 -9 7 -9 18 0 8 6 14 9 14 6 0
-3 12 -2 28 2 40 11 48 10 48 -8z m67 -3 c5 -19 -8 -25 -18 -8 -3 5 -12 7 -20
3 -15 -5 -21 8 -9 20 12 12 43 2 47 -15z m37 12 c-11 -7 -11 -10 -2 -10 7 0
10 -5 7 -10 -8 -13 -25 -3 -25 16 0 8 8 14 18 14 14 0 15 -2 2 -10z m-8372
-48 c16 -48 22 -47 37 6 7 26 17 38 32 40 18 3 21 -3 27 -45 4 -26 9 -65 12
-85 4 -29 2 -38 -9 -38 -17 0 -27 29 -27 78 0 48 -13 39 -30 -20 -8 -29 -19
-52 -25 -51 -5 1 -16 25 -23 52 -8 28 -18 51 -23 51 -5 0 -9 -23 -9 -50 0 -36
-4 -52 -15 -57 -9 -3 -18 -4 -20 -2 -2 2 1 41 7 87 10 75 13 83 31 80 14 -2
25 -16 35 -46z m277 23 c52 -51 16 -145 -54 -145 -76 0 -114 97 -57 146 36 31
80 31 111 -1z m129 -27 c17 -26 34 -47 39 -47 4 -1 7 22 7 49 0 38 4 50 15 50
12 0 15 -16 15 -85 0 -105 -12 -109 -69 -28 l-41 56 0 -56 c0 -44 -3 -57 -15
-57 -16 0 -17 7 -20 113 -1 52 1 58 19 55 10 -2 33 -24 50 -50z m146 -33 c0
-69 -3 -85 -15 -85 -12 0 -15 16 -15 85 0 69 3 85 15 85 12 0 15 -16 15 -85z
m136 64 c17 -19 17 -23 3 -47 -9 -17 -25 -28 -42 -30 -24 -3 -27 -8 -27 -38 0
-24 -5 -34 -15 -34 -12 0 -15 16 -15 85 l0 85 38 0 c27 0 45 -7 58 -21z m142
-57 c18 -43 32 -81 32 -85 0 -15 -26 -6 -38 13 -8 13 -23 20 -41 20 -21 0 -32
-6 -36 -20 -3 -11 -15 -20 -25 -20 -17 0 -17 4 7 63 14 34 29 72 34 85 15 40
34 24 67 -56z m77 51 l17 -26 17 26 c8 15 24 27 34 27 17 0 17 -4 -7 -44 -16
-28 -26 -59 -26 -85 0 -30 -4 -41 -15 -41 -11 0 -15 11 -15 38 0 21 -11 54
-25 77 -14 22 -25 43 -25 48 0 17 29 5 45 -20z m7090 17 c-3 -5 -1 -10 4 -10
6 0 11 4 11 8 0 4 25 8 55 9 40 0 55 -3 55 -13 0 -8 -9 -14 -21 -14 -13 0 -18
4 -14 13 4 6 -1 3 -11 -8 -14 -17 -16 -17 -11 -2 4 9 2 17 -3 17 -6 0 -10 -6
-10 -12 0 -8 -18 -14 -50 -16 -39 -2 -50 1 -50 13 0 8 5 15 11 15 5 0 7 -4 4
-10 -3 -5 -1 -10 4 -10 6 0 11 7 11 15 0 8 5 15 11 15 5 0 7 -4 4 -10z m-7758
-210 c1 -16 -1 -17 -12 -7 -11 10 -8 19 10 27 1 0 1 -9 2 -20z m263 -2 c0 -19
-2 -20 -10 -8 -5 8 -10 10 -10 4 0 -6 -13 -10 -29 -10 -17 0 -28 3 -25 7 2 5
10 6 17 3 7 -2 21 2 32 10 26 20 25 20 25 -6z m75 13 c3 -6 -4 -15 -15 -21
-17 -9 -20 -8 -20 10 0 20 24 28 35 11z m242 -23 c-3 -7 -5 -2 -5 12 0 14 2
19 5 13 2 -7 2 -19 0 -25z m-740 0 c-3 -8 -6 -5 -6 6 -1 11 2 17 5 13 3 -3 4
-12 1 -19z m20 0 c-3 -8 -6 -5 -6 6 -1 11 2 17 5 13 3 -3 4 -12 1 -19z m205 3
c-4 -10 -7 -11 -10 -3 -3 10 -7 10 -20 0 -15 -11 -15 -11 -5 3 16 20 43 21 35
0z m483 8 c11 -16 1 -19 -13 -3 -7 8 -8 14 -3 14 5 0 13 -5 16 -11z m119 -4
c3 -8 1 -15 -4 -15 -6 0 -10 7 -10 15 0 8 2 15 4 15 2 0 6 -7 10 -15z m37 -8
c-13 -13 -26 -3 -16 12 3 6 11 8 17 5 6 -4 6 -10 -1 -17z m-756 3 c3 -5 1 -10
-4 -10 -6 0 -11 5 -11 10 0 6 2 10 4 10 3 0 8 -4 11 -10z m425 0 c0 -5 -8 -10
-17 -10 -15 0 -16 2 -3 10 19 12 20 12 20 0z m30 -5 c0 -8 -4 -15 -10 -15 -5
0 -7 7 -4 15 4 8 8 15 10 15 2 0 4 -7 4 -15z m65 5 c3 -5 -3 -10 -14 -10 -12
0 -21 5 -21 10 0 6 6 10 14 10 8 0 18 -4 21 -10z m175 0 c0 -5 -8 -10 -17 -10
-15 0 -16 2 -3 10 19 12 20 12 20 0z"/>
<path d="M9377 3087 c-3 -8 1 -14 8 -14 7 0 11 6 8 14 -3 7 -6 13 -8 13 -2 0
-5 -6 -8 -13z"/>
<path d="M9456 3075 c-9 -26 -7 -32 5 -12 6 10 9 21 6 23 -2 3 -7 -2 -11 -11z"/>
<path d="M3065 2642 c-80 -31 -108 -64 -118 -137 -22 -158 96 -280 236 -244
158 39 196 293 58 386 -44 30 -89 29 -176 -5z"/>
<path d="M2127 2653 c-4 -3 -7 -49 -7 -101 l0 -94 80 4 c70 3 83 6 106 30 20
20 27 36 27 67 0 51 -35 95 -71 88 -12 -2 -25 0 -28 4 -6 10 -98 12 -107 2z
m27 -14 c-4 -7 0 -9 13 -5 14 5 19 1 19 -14 0 -26 -8 -25 -36 5 -20 21 -21 25
-6 25 10 0 14 -5 10 -11z m76 -13 c0 -2 -8 -10 -17 -17 -16 -13 -17 -12 -4 4
13 16 21 21 21 13z"/>
<path d="M2550 2010 c0 -5 4 -10 9 -10 6 0 13 5 16 10 3 6 -1 10 -9 10 -9 0
-16 -4 -16 -10z"/>
<path d="M9430 2830 c0 -5 4 -10 9 -10 6 0 13 5 16 10 3 6 -1 10 -9 10 -9 0
-16 -4 -16 -10z"/>
<path d="M9438 2803 c7 -3 16 -2 19 1 4 3 -2 6 -13 5 -11 0 -14 -3 -6 -6z"/>
<path d="M4090 2404 l0 -57 50 5 c59 6 80 21 80 59 0 35 -24 49 -84 49 l-46 0
0 -56z"/>
<path d="M4500 2372 c-8 -20 -16 -40 -18 -44 -2 -5 14 -8 37 -8 l40 0 -15 38
c-23 54 -28 56 -44 14z"/>
<path d="M6160 2404 l0 -57 50 5 c60 6 80 21 80 59 0 34 -28 49 -91 49 l-39 0
0 -56z"/>
<path d="M8160 1769 c0 -11 5 -17 10 -14 6 3 10 13 10 21 0 8 -4 14 -10 14 -5
0 -10 -9 -10 -21z"/>
<path d="M8100 1764 c0 -8 5 -12 10 -9 6 3 10 10 10 16 0 5 -4 9 -10 9 -5 0
-10 -7 -10 -16z"/>
<path d="M1148 1709 c-21 -12 -25 -74 -6 -85 17 -10 48 33 48 67 0 30 -12 36
-42 18z"/>
<path d="M2936 1698 c-20 -28 -21 -78 -2 -78 26 0 47 31 44 63 -4 38 -21 45
-42 15z"/>
<path d="M3053 1703 c-23 -23 -31 -67 -13 -78 15 -9 42 41 38 72 l-3 28 -22
-22z"/>
<path d="M3327 1703 c-15 -17 -16 -24 -5 -49 10 -22 20 -29 42 -29 38 0 45 21
12 36 -15 7 -26 22 -28 37 -3 24 -3 24 -21 5z"/>
<path d="M1040 1705 c-7 -8 -11 -17 -8 -20 8 -8 49 8 45 18 -6 18 -23 19 -37
2z"/>
<path d="M3833 1703 c-23 -23 -31 -67 -13 -78 15 -9 42 41 38 72 l-3 28 -22
-22z"/>
<path d="M1450 1705 c-7 -9 -10 -18 -7 -21 10 -10 47 7 47 22 0 19 -24 18 -40
-1z"/>
<path d="M1560 1705 c-7 -8 -11 -17 -8 -20 8 -8 49 8 45 18 -6 18 -23 19 -37
2z"/>
<path d="M1863 1703 c-23 -23 -31 -67 -13 -78 15 -9 42 41 38 72 l-3 28 -22
-22z"/>
<path d="M2230 1705 c-7 -9 -10 -18 -7 -21 10 -10 47 7 47 22 0 19 -24 18 -40
-1z"/>
<path d="M2531 1701 c-15 -28 -14 -56 4 -71 24 -20 47 6 43 49 -3 41 -30 54
-47 22z"/>
<path d="M2703 1712 c-26 -17 -36 -92 -12 -92 11 0 39 61 39 85 0 16 -9 19
-27 7z"/>
<path d="M1133 1148 c-28 -13 -47 -60 -39 -93 16 -63 78 -84 121 -40 34 33 34
87 0 120 -26 27 -47 30 -82 13z"/>
<path d="M1803 1148 c-47 -23 -54 -97 -13 -138 45 -45 120 -4 120 65 0 25 -8
44 -25 60 -26 27 -47 30 -82 13z"/>
<path d="M9440 933 c0 -11 3 -14 8 -7 4 6 14 14 22 17 10 4 8 6 -7 6 -16 1
-23 -5 -23 -16z"/>
<path d="M9315 931 l-30 -7 27 -6 c17 -3 32 0 39 8 12 15 10 15 -36 5z"/>
<path d="M9550 936 c0 -2 11 -6 25 -8 13 -3 22 -1 19 3 -5 9 -44 13 -44 5z"/>
<path d="M9273 816 l-71 -83 70 -13 c76 -13 88 -9 88 35 0 18 -5 20 -40 17
-22 -2 -40 0 -40 4 0 5 16 35 35 67 19 31 33 57 32 57 -1 0 -34 -38 -74 -84z"/>
<path d="M9512 804 c-41 -47 -72 -87 -70 -89 4 -5 157 30 162 36 2 2 6 16 10
31 6 26 5 27 -20 18 -14 -6 -35 -10 -46 -10 -19 0 -20 1 -4 25 9 14 23 36 32
50 27 42 12 28 -64 -61z"/>
<path d="M9541 694 c0 -11 3 -14 6 -6 3 7 2 16 -1 19 -3 4 -6 -2 -5 -13z"/>
<path d="M9473 685 c-3 -9 -3 -18 -1 -21 3 -3 8 4 11 16 6 23 -1 27 -10 5z"/>
<path d="M9500 696 c0 -2 8 -10 18 -17 15 -13 16 -12 3 4 -13 16 -21 21 -21
13z"/>
<path d="M1456 454 c-32 -31 -10 -94 33 -94 23 0 51 31 51 57 0 23 -29 53 -53
53 -8 0 -23 -7 -31 -16z"/>
<path d="M1890 451 c0 -11 4 -22 8 -25 14 -9 35 12 29 28 -9 23 -37 20 -37 -3z"/>
<path d="M2041 422 c-10 -18 -9 -23 4 -28 23 -9 30 2 18 28 l-10 23 -12 -23z"/>
</g>
</svg>
