<?xml version="1.0" standalone="no"?>
<!DOCTYPE svg PUBLIC "-//W3C//DTD SVG 20010904//EN"
 "http://www.w3.org/TR/2001/REC-SVG-20010904/DTD/svg10.dtd">
<svg version="1.0" xmlns="http://www.w3.org/2000/svg"
 width="1143.000000pt" height="381.000000pt" viewBox="0 0 1143.000000 381.000000"
 preserveAspectRatio="xMidYMid meet">

<g transform="translate(0.000000,381.000000) scale(0.100000,-0.100000)"
fill="#000000" stroke="none">
<path d="M0 1905 l0 -1905 1049 0 1049 0 18 52 c9 29 19 66 20 83 2 18 16 41
35 58 24 22 29 34 25 53 -10 37 1 29 14 -11 11 -32 10 -37 -12 -55 -12 -11
-20 -19 -17 -20 11 0 129 61 134 71 12 19 21 8 17 -20 -3 -24 -8 -28 -33 -25
-24 3 -30 -1 -35 -24 -9 -34 -24 -44 -43 -29 -11 9 -15 9 -18 -1 -3 -6 -8 -10
-12 -7 -5 2 -22 -24 -40 -58 l-32 -62 72 -3 c51 -2 75 1 80 10 7 11 9 11 9 0
0 -10 55 -13 264 -12 254 2 263 2 259 21 -3 10 -14 19 -24 19 -13 0 -19 7 -19
21 0 51 -42 77 -70 44 -7 -8 -16 -15 -21 -15 -14 0 -10 26 6 40 8 7 12 16 10
21 -7 10 30 31 39 22 9 -10 7 0 -9 47 -8 23 -15 48 -15 54 1 17 70 -167 70
-187 0 -10 11 -22 24 -27 14 -5 33 -21 42 -35 l17 -25 459 0 459 1 -31 35
c-31 36 -34 69 -6 86 7 4 13 25 14 47 2 31 -2 42 -18 51 -11 6 -20 16 -20 22
0 9 3 9 12 0 17 -17 23 -15 24 11 9 138 10 265 2 280 -5 10 -9 51 -9 91 0 57
5 81 21 109 18 30 21 49 18 104 -3 60 -5 68 -22 65 -15 -3 -17 1 -12 22 3 13
2 28 -4 31 -13 8 -13 80 0 123 7 25 5 44 -5 70 -8 21 -14 58 -12 85 1 26 -1
48 -5 50 -4 1 -11 28 -16 60 -8 49 -6 61 8 80 10 12 29 48 44 80 16 32 43 70
62 85 19 15 42 41 50 59 30 62 66 54 62 -14 -2 -46 -31 -93 -57 -93 -6 0 -11
-9 -11 -21 0 -11 -5 -30 -12 -42 -22 -40 -20 -67 8 -100 15 -18 34 -48 42 -67
13 -32 15 -33 23 -15 6 14 8 8 4 -20 -3 -22 -2 -35 2 -28 5 6 21 15 36 18 21
6 27 13 27 34 1 25 1 25 15 7 17 -22 16 -23 33 24 11 32 10 37 -8 52 -11 9
-26 18 -32 20 -23 8 19 58 50 59 15 1 37 3 50 4 31 3 76 -63 91 -133 15 -70
14 -85 -3 -79 -9 4 -12 0 -10 -11 4 -16 -22 -59 -101 -172 l-29 -42 0 -297 c0
-212 5 -334 17 -431 10 -87 13 -138 6 -146 -5 -6 -6 -19 -3 -29 5 -12 1 -22
-10 -31 -11 -7 -15 -18 -10 -25 5 -9 2 -10 -9 -6 -10 4 -17 2 -17 -5 0 -6 -12
-21 -27 -34 l-28 -24 3733 0 3732 0 0 1905 0 1905 -5715 0 -5715 0 0 -1905z
m3780 1515 l0 -240 -235 0 -235 0 0 240 0 240 235 0 235 0 0 -240z m-1936 202
c12 -20 -6 -49 -30 -49 -57 0 -85 -72 -44 -113 58 -58 152 27 97 88 -21 22
-21 23 -2 16 18 -7 19 -6 5 11 -12 15 -12 17 -1 14 8 -3 21 -16 30 -30 15 -23
15 -23 -3 -9 -17 13 -19 13 -14 0 2 -8 17 -16 32 -18 26 -3 28 -6 23 -37 -3
-18 -29 -77 -57 -129 l-52 -96 -40 0 -39 0 30 54 c36 63 37 66 12 66 -30 0
-80 48 -92 89 -18 61 22 127 86 144 33 8 54 8 59 -1z m61 -32 c16 -16 27 -31
24 -33 -2 -2 -19 11 -37 29 -18 19 -29 34 -24 34 4 0 21 -13 37 -30z m-56 -69
c13 -24 -8 -55 -34 -50 -23 5 -40 32 -32 53 9 22 54 20 66 -3z m5733 -245 c77
-38 99 -147 40 -206 l-27 -26 30 -20 c68 -44 81 -132 28 -195 -44 -51 -75 -59
-243 -59 l-150 0 0 266 0 266 143 -4 c112 -3 150 -7 179 -22z m-5742 -41 c7
-8 16 -12 21 -9 5 3 9 -2 9 -11 0 -9 -4 -13 -10 -10 -5 3 -10 2 -10 -4 0 -6
-20 -9 -46 -7 -33 2 -49 8 -57 22 -10 18 -11 18 -18 -6 -7 -24 -7 -24 -8 -2
-1 12 -5 22 -10 22 -5 0 -12 -10 -14 -22 -5 -20 -5 -20 -4 2 2 28 38 40 62 20
10 -8 15 -8 20 0 4 6 13 9 21 6 8 -3 14 -1 14 4 0 15 16 12 30 -5z m47 -22
c-3 -10 -5 -4 -5 12 0 17 2 24 5 18 2 -7 2 -21 0 -30z m51 6 c3 -11 1 -11 -8
1 -10 12 -11 11 -7 -7 3 -13 1 -23 -3 -23 -14 0 -22 20 -16 36 7 18 28 14 34
-7z m5912 -186 c3 -92 9 -146 17 -154 23 -22 74 -15 100 15 22 25 23 35 23
157 l0 129 60 0 60 0 0 -205 0 -205 -60 0 c-53 0 -60 2 -60 20 0 18 -2 18 -36
-5 -46 -31 -87 -32 -144 -2 -71 35 -82 65 -88 227 -3 76 -2 146 2 155 4 13 18
15 63 13 l58 -3 5 -142z m424 70 c16 -43 38 -98 48 -123 l20 -45 48 120 48
120 61 3 c33 2 61 0 61 -4 0 -11 -179 -462 -197 -497 -19 -38 -70 -67 -116
-67 -38 0 -102 23 -113 41 -7 12 38 89 53 89 6 0 15 -4 18 -10 11 -17 54 -11
65 9 11 21 -1 58 -99 305 -28 70 -51 130 -51 132 0 2 28 4 63 4 l62 0 29 -77z
m-5430 -307 c76 -27 132 -76 182 -157 19 -31 34 -59 34 -63 0 -3 -15 3 -32 14
-35 21 -88 27 -88 10 0 -5 7 -10 15 -10 8 0 12 -6 10 -12 -4 -9 7 -14 30 -15
37 -2 89 -33 105 -63 6 -11 13 -47 16 -82 4 -35 15 -89 25 -120 22 -66 25
-200 8 -293 -6 -32 -40 -122 -76 -199 -76 -162 -86 -179 -118 -200 -23 -15
-23 -15 -19 24 3 38 -7 52 -21 30 -9 -15 -55 -12 -110 8 -31 11 -59 15 -75 11
-41 -11 -51 -10 -48 7 2 10 -3 19 -11 22 -9 3 -11 0 -6 -7 5 -9 1 -9 -14 1
-12 7 -21 19 -21 26 0 7 -13 42 -30 79 -23 50 -30 80 -29 122 1 54 1 55 11 21
16 -56 28 -59 28 -7 0 26 4 47 9 47 5 0 28 -18 52 -40 24 -22 52 -40 61 -40
10 0 18 -2 18 -4 0 -2 3 -12 7 -21 5 -14 2 -16 -15 -10 -30 9 -27 -9 4 -25
l25 -14 -23 -18 c-19 -14 -21 -20 -12 -35 10 -15 24 -18 95 -15 84 3 124 15
113 33 -3 5 -1 15 4 22 5 7 12 26 16 42 l8 30 -24 -22 c-14 -13 -35 -23 -49
-23 -42 0 -99 20 -99 35 0 8 -3 14 -7 13 -11 -2 -83 34 -83 43 0 25 129 17
175 -11 18 -11 35 -25 37 -31 2 -7 12 -7 30 1 29 14 78 101 78 140 0 28 -55
151 -73 162 -17 11 -29 10 -22 -2 7 -12 -5 -12 -57 -4 -22 4 -38 12 -38 20 0
19 -22 9 -119 -53 -46 -30 -86 -51 -89 -48 -3 3 -1 26 6 50 23 85 11 112 -22
51 -10 -19 -24 -32 -31 -30 -13 5 -25 -24 -25 -63 0 -15 -5 -20 -18 -16 -13 3
-18 -2 -20 -22 -1 -14 -7 -36 -14 -48 -7 -12 -13 -42 -13 -67 0 -36 -4 -45
-19 -48 -10 -2 -23 2 -27 10 -7 11 -11 10 -19 -2 -12 -19 -13 -33 -1 -25 5 3
12 1 16 -5 3 -5 2 -10 -3 -10 -5 0 -21 -11 -37 -24 -27 -23 -27 -24 -10 -50
14 -20 14 -26 4 -26 -12 0 -12 -2 -1 -9 11 -6 10 -10 -4 -15 -21 -8 -19 -10
-42 43 -14 30 -18 52 -12 70 4 14 4 35 -1 46 -4 11 -8 39 -8 63 -1 23 -5 42
-9 42 -17 0 -45 78 -38 107 4 15 7 34 8 41 2 17 28 15 29 -3 2 -24 4 -29 15
-49 22 -37 34 -7 33 84 0 49 2 94 6 99 3 6 2 11 -4 11 -12 0 -4 51 14 95 8 17
17 41 21 55 11 40 62 109 92 124 27 14 122 14 185 0 24 -5 27 -3 27 19 0 28
-20 37 -87 37 -24 0 -43 4 -43 9 0 4 -12 6 -26 3 -24 -4 -25 -3 -12 17 11 18
11 23 0 30 -10 6 -7 10 13 15 20 5 31 2 41 -11 7 -10 14 -13 14 -7 0 17 38 56
48 50 5 -3 25 4 45 14 52 28 154 15 178 -23 4 -5 12 -8 19 -5 22 7 -60 49
-124 63 -45 10 -53 13 -29 14 18 1 61 -10 97 -23z m1566 -351 l0 -255 -355 0
-355 0 0 255 0 255 355 0 355 0 0 -255z m2435 145 c3 -6 -1 -7 -9 -4 -18 7
-21 14 -7 14 6 0 13 -4 16 -10z m147 -5 c5 -7 8 -6 8 1 0 8 59 12 190 13 125
1 190 -2 190 -9 0 -5 -5 -10 -11 -10 -5 0 -8 -3 -6 -7 3 -5 -32 -6 -76 -3 -45
3 -119 5 -164 5 -52 -1 -83 3 -83 9 0 7 -3 8 -8 1 -6 -9 -46 -12 -62 -5 -17 6
-70 3 -70 -4 0 -5 -3 -7 -6 -3 -13 13 7 22 48 23 23 0 46 -5 50 -11z m488 5
c0 -5 -4 -10 -10 -10 -5 0 -10 5 -10 10 0 6 5 10 10 10 6 0 10 -4 10 -10z
m374 1 c-6 -7 -136 -2 -144 5 -2 3 30 4 73 3 43 -1 75 -5 71 -8z m41 -1 c3 -5
1 -10 -4 -10 -6 0 -11 5 -11 10 0 6 2 10 4 10 3 0 8 -4 11 -10z m215 -5 c0
-19 -21 -30 -30 -15 -5 9 -9 9 -14 1 -4 -6 -18 -11 -32 -11 -21 0 -23 2 -12
14 7 8 16 12 21 9 4 -2 7 0 7 5 0 5 14 9 30 10 19 0 30 -4 30 -13z m2370 -3
c66 -33 70 -53 70 -361 0 -151 -2 -272 -4 -270 -2 2 -7 103 -10 224 -8 286
-12 312 -45 346 -34 33 -125 56 -167 42 -16 -6 -49 -9 -74 -7 -189 12 -234 13
-269 5 -23 -5 -39 -5 -36 -1 2 4 -32 7 -76 7 -44 0 -82 -3 -84 -7 -2 -3 -122
-4 -267 -2 -302 5 -568 3 -581 -5 -5 -3 -12 -1 -16 4 -3 5 -43 6 -89 3 -49 -3
-87 -1 -94 5 -7 7 -12 6 -15 -1 -3 -8 -15 -9 -41 -3 -20 5 -82 6 -137 4 -225
-11 -274 -7 -224 21 19 11 223 13 1074 14 980 0 1052 -1 1085 -18z m-9260 -19
c42 -53 2 -138 -93 -196 -37 -24 -49 -27 -66 -18 -27 15 -27 41 -1 69 42 45
74 20 34 -27 -14 -17 -23 -31 -19 -31 18 0 66 33 94 65 34 39 39 66 17 84 -17
14 -29 9 -112 -46 -51 -34 -77 -36 -88 -6 -18 46 93 133 171 133 33 0 46 -5
63 -27z m6308 6 c-19 -13 -28 -11 -28 5 0 9 7 12 21 9 16 -4 17 -8 7 -14z
m-5179 -181 c-5 -18 -9 -47 -9 -65 0 -28 -3 -32 -22 -29 -13 1 -22 5 -21 7 3
6 9 29 22 77 7 24 18 42 26 42 11 0 12 -7 4 -32z m3712 -190 c41 -95 76 -176
77 -180 2 -4 -16 -8 -40 -8 -41 0 -46 3 -61 35 l-17 35 -74 0 -75 0 -12 -35
c-12 -33 -16 -35 -56 -35 -24 0 -43 3 -43 6 0 5 138 332 147 347 2 4 21 7 42
7 l38 0 74 -172z m177 -10 l2 -178 -45 0 -45 0 0 181 0 180 43 -3 42 -3 3
-177z m251 171 c73 -15 94 -46 89 -123 -4 -49 -9 -63 -32 -83 l-27 -23 34 -48
c54 -75 54 -72 -2 -72 -50 0 -51 0 -87 55 -29 43 -42 55 -63 55 -25 0 -26 -1
-23 -55 l4 -55 -46 0 -46 0 0 180 0 180 75 0 c40 0 97 -5 124 -11z m396 -29
c0 -35 0 -35 -47 -38 l-48 -3 0 -140 0 -139 -45 0 -45 0 0 140 0 140 -50 0
-50 0 0 40 0 41 143 -3 142 -3 0 -35z m113 -142 l2 -178 -45 0 -45 0 0 181 0
180 43 -3 42 -3 3 -177z m207 85 l45 -97 47 97 47 97 53 0 53 0 0 -180 0 -180
-40 0 -40 0 -1 108 0 107 -47 -92 c-40 -81 -50 -93 -72 -93 -22 0 -32 12 -72
93 l-47 92 6 -107 6 -108 -46 0 -47 0 0 180 0 180 55 0 55 0 45 -97z m565 57
l0 -40 -91 0 c-90 0 -91 0 -85 -22 3 -13 6 -29 6 -35 0 -9 22 -13 75 -13 l75
0 0 -35 0 -35 -80 0 -80 0 0 -35 0 -35 95 0 95 0 0 -35 0 -35 -135 0 -135 0 0
180 0 180 130 0 130 0 0 -40z m1187 13 c100 -51 120 -188 42 -278 -38 -43 -80
-55 -191 -55 l-88 0 0 173 c0 96 3 177 8 181 15 16 188 0 229 -21z m311 15 c7
-10 69 -149 149 -335 4 -9 -8 -13 -39 -13 -41 0 -46 3 -61 35 l-17 35 -74 0
-75 0 -12 -35 c-12 -33 -16 -35 -56 -35 -24 0 -43 3 -43 6 0 3 24 62 54 132
102 238 93 222 130 222 19 0 38 -6 44 -12z m387 -28 l0 -35 -51 -3 -50 -3 4
-139 5 -140 -47 0 -46 0 0 140 0 140 -50 0 c-50 0 -50 0 -50 33 0 19 3 37 7
41 4 3 68 5 142 4 l136 -3 0 -35z m193 28 c7 -10 69 -149 149 -335 4 -9 -8
-13 -39 -13 -41 0 -46 3 -61 35 l-17 35 -74 0 -75 0 -12 -35 c-12 -33 -16 -35
-56 -35 -24 0 -43 3 -43 6 0 3 24 62 54 132 102 238 93 222 130 222 19 0 38
-6 44 -12z m-1591 -33 c32 -36 29 -61 -11 -101 -33 -33 -34 -35 -16 -56 l17
-22 7 22 c9 27 14 27 45 1 21 -17 23 -23 12 -46 -10 -22 -9 -29 9 -48 26 -27
25 -31 -5 -51 -24 -16 -27 -15 -44 0 -14 13 -24 15 -38 8 -20 -11 -50 -15
-101 -13 -23 1 -43 10 -63 30 -39 40 -39 79 3 127 27 30 30 39 20 55 -22 35
-14 75 20 104 27 23 39 26 77 22 33 -4 52 -12 68 -32z m-7191 -42 c-5 -11 -1
-13 17 -7 12 3 28 11 35 17 18 14 24 4 25 -42 1 -27 -2 -41 -10 -41 -8 0 -13
13 -13 30 0 22 -4 28 -15 24 -8 -4 -15 -17 -15 -30 0 -17 -6 -24 -19 -24 -15
0 -20 9 -23 43 -3 23 -3 45 -1 50 8 13 25 -5 19 -20z m164 -17 c0 -19 3 -42 6
-50 5 -12 2 -15 -10 -10 -9 3 -16 12 -16 20 0 8 -9 14 -21 14 -11 0 -17 -5
-14 -10 4 -6 11 -8 16 -5 5 4 9 2 9 -4 0 -17 -20 -23 -35 -11 -20 16 -19 59 0
66 8 4 22 1 30 -6 12 -10 15 -9 15 9 0 11 5 21 10 21 6 0 10 -15 10 -34z
m-192 -17 c2 -15 -4 -31 -13 -39 -13 -11 -19 -11 -33 3 -12 13 -13 20 -5 28 6
6 9 18 6 26 -4 11 0 14 18 11 17 -2 25 -10 27 -29z m1264 -1 c-7 -7 -12 -8
-12 -2 0 6 3 14 7 17 3 4 9 5 12 2 2 -3 -1 -11 -7 -17z m618 -93 c16 -8 36
-25 44 -37 18 -25 22 -108 6 -108 -5 0 -10 6 -10 13 -1 6 -10 1 -21 -12 -25
-31 -29 -26 -19 27 7 41 6 44 -19 53 -14 6 -50 10 -79 10 -43 0 -56 -4 -72
-23 -11 -13 -19 -20 -20 -16 0 4 -12 1 -26 -6 -26 -14 -64 -11 -64 5 0 5 3 9
8 9 4 0 25 16 47 36 22 20 54 42 70 49 41 18 120 18 155 0z m-666 -62 c13 -46
17 -93 8 -93 -5 0 -13 -11 -16 -24 -4 -18 -11 -22 -30 -19 -13 3 -33 0 -45 -6
-16 -9 -20 -9 -15 2 3 8 6 27 7 43 2 23 8 30 30 32 30 4 36 26 10 40 -23 13
-9 42 21 42 15 0 27 -7 30 -17z m323 -15 c-3 -7 -5 -2 -5 12 0 14 2 19 5 13 2
-7 2 -19 0 -25z m-367 -147 c0 -5 -6 -11 -14 -14 -8 -3 -22 -29 -31 -58 -15
-44 -16 -58 -5 -93 7 -22 17 -47 22 -53 8 -10 6 -13 -6 -13 -8 0 -23 14 -32
32 -28 55 -5 191 35 201 27 8 31 7 31 -2z m34 -68 c7 -54 -4 -105 -23 -111
-10 -3 -11 9 -5 54 4 33 7 69 6 82 -3 43 16 21 22 -25z m972 -55 c22 -43 13
-103 -22 -139 -31 -33 -93 -54 -108 -39 -7 7 0 10 18 10 84 0 138 104 92 175
-9 14 -16 27 -16 30 0 14 21 -8 36 -37z m-716 -9 c0 -11 -4 -17 -10 -14 -5 3
-10 13 -10 21 0 8 5 14 10 14 6 0 10 -9 10 -21z m33 -19 c3 -13 0 -20 -9 -20
-8 0 -14 9 -14 20 0 11 4 20 9 20 5 0 11 -9 14 -20z m378 -251 c-5 -24 -15
-70 -21 -101 -6 -32 -16 -60 -21 -63 -5 -4 -9 -1 -9 5 0 7 -8 9 -21 5 -14 -5
-20 -3 -18 7 3 25 -1 38 -12 38 -8 0 -7 -5 1 -15 11 -13 10 -14 -4 -9 -9 3
-16 10 -16 15 0 5 -4 9 -10 9 -5 0 -7 -7 -4 -15 4 -10 0 -15 -15 -15 -19 0
-20 2 -10 22 7 13 14 35 15 51 5 36 21 67 37 68 29 2 49 8 80 27 17 10 33 18
35 17 2 -2 -1 -22 -7 -46z m-360 4 c25 -16 38 -32 34 -40 -3 -8 -5 -19 -5 -24
0 -4 -14 -6 -32 -2 -26 5 -30 3 -25 -10 4 -11 2 -14 -9 -10 -17 6 -18 20 -1
26 9 3 9 7 -2 20 -10 13 -11 17 -1 17 9 0 8 5 -3 18 -36 40 -13 43 44 5z
m1445 16 c3 -5 -1 -9 -10 -9 -8 0 -32 -26 -53 -57 -39 -58 -65 -73 -71 -42 -4
24 18 76 27 61 5 -9 14 -5 31 13 13 14 20 25 16 25 -4 0 -5 4 -2 9 3 5 17 9
31 9 14 0 28 -4 31 -9z m-916 -43 c0 -5 -7 -1 -15 10 -8 10 -14 24 -14 29 0 6
6 1 14 -9 8 -11 15 -24 15 -30z m988 -3 c2 -7 -3 -13 -11 -13 -14 0 -91 -76
-98 -98 -6 -16 -49 -3 -49 15 0 39 55 106 81 98 10 -3 20 -1 24 5 9 14 47 9
53 -7z m-1161 -245 c-3 -8 -6 -5 -6 6 -1 11 2 17 5 13 3 -3 4 -12 1 -19z m-58
-20 c0 -18 -4 -41 -8 -52 -6 -16 -10 -14 -34 17 -30 40 -33 49 -13 41 7 -3 16
2 19 10 12 30 37 18 36 -16z m47 -24 c-4 -15 -3 -23 2 -20 12 7 23 -30 15 -50
-3 -8 -11 -14 -19 -14 -10 0 -12 8 -7 32 4 21 3 29 -5 24 -7 -4 -7 3 1 24 14
37 22 39 13 4z m-198 -30 c22 -15 22 -17 5 -30 -27 -20 -46 -18 -40 6 3 11 1
20 -4 20 -5 0 -9 5 -9 10 0 15 23 12 48 -6z m52 5 c0 -5 8 -9 18 -7 10 1 30
-5 45 -15 15 -10 32 -15 38 -12 6 4 9 -9 7 -34 -1 -34 -6 -43 -25 -47 -12 -3
-27 -12 -34 -20 -6 -8 -15 -11 -20 -8 -11 6 -70 -37 -64 -47 3 -4 -2 -10 -11
-13 -9 -4 -13 -2 -8 5 4 7 1 10 -7 7 -8 -3 -15 -10 -15 -16 -3 -22 -4 -23 -24
-12 -27 15 -26 56 3 74 12 8 37 17 55 21 17 4 32 11 32 16 0 14 -13 11 -74
-16 -64 -28 -66 -29 -66 -16 0 5 9 12 19 16 11 3 21 16 23 28 2 15 9 21 23 20
42 -4 91 60 61 79 -7 5 -4 8 7 8 9 0 17 -5 17 -11z m4365 -362 c64 -153 114
-281 110 -285 -3 -4 -37 -8 -75 -10 l-69 -4 -42 91 c-23 50 -45 91 -49 91 -4
0 -20 -30 -35 -67 -45 -114 -43 -113 -134 -113 l-79 0 -28 71 c-15 38 -31 72
-35 74 -4 3 -22 -32 -40 -76 l-34 -82 -46 98 -47 98 35 81 c19 44 53 124 75
176 22 52 43 99 47 103 7 7 41 -64 123 -261 17 -40 34 -69 38 -65 4 4 30 62
58 128 76 179 102 238 106 234 2 -2 57 -129 121 -282z m-4530 233 c3 -5 1 -10
-4 -10 -6 0 -11 5 -11 10 0 6 2 10 4 10 3 0 8 -4 11 -10z m33 -61 c-3 -8 -7
-3 -11 10 -4 17 -3 21 5 13 5 -5 8 -16 6 -23z m-1351 -71 c-3 -8 -6 -5 -6 6
-1 11 2 17 5 13 3 -3 4 -12 1 -19z m6170 -115 l30 -98 29 95 30 95 41 3 c48 4
43 18 68 -181 20 -156 21 -147 -20 -147 -26 0 -35 4 -36 18 0 9 -6 59 -12 110
l-12 92 -34 -110 c-30 -98 -37 -111 -55 -108 -16 2 -26 22 -52 102 -17 55 -33
95 -36 90 -3 -5 -9 -43 -13 -84 -9 -108 -11 -110 -52 -110 -35 0 -36 0 -30 38
4 20 11 80 17 132 18 166 16 160 65 160 l42 0 30 -97z m504 74 c55 -37 79 -81
79 -147 0 -62 -22 -106 -71 -142 -63 -47 -176 -27 -227 40 -23 30 -27 45 -27
102 0 58 4 71 29 104 16 21 43 44 60 52 49 21 118 18 157 -9z m273 -72 c37
-52 72 -97 77 -100 5 -4 9 35 9 94 l0 101 35 0 35 0 0 -165 0 -165 -38 0 c-37
0 -40 3 -108 100 l-69 99 -3 -99 -3 -100 -39 0 -40 0 0 158 c0 87 3 162 7 165
3 4 21 7 38 7 29 0 38 -9 99 -95z m286 -70 l0 -165 -35 0 -35 0 0 165 0 165
35 0 35 0 0 -165z m230 150 c89 -46 56 -174 -49 -191 l-41 -7 0 -58 0 -59 -40
0 -40 0 0 158 c0 87 3 162 7 165 13 13 134 7 163 -8z m304 -145 c36 -88 66
-162 66 -165 0 -3 -16 -5 -36 -5 -31 0 -37 4 -47 30 -11 29 -14 30 -73 30 -59
0 -62 -1 -74 -30 -11 -26 -18 -30 -50 -30 l-38 0 66 165 c62 156 67 165 93
165 25 0 30 -9 93 -160z m145 109 l29 -52 32 52 c29 47 35 51 71 51 21 0 39
-2 39 -4 0 -3 -22 -42 -50 -88 -48 -81 -50 -85 -50 -160 l0 -78 -40 0 -40 0 0
80 c0 75 -2 83 -38 142 -70 114 -69 108 -23 108 38 0 42 -3 70 -51z m-7922
-11 c-3 -8 -6 -5 -6 6 -1 11 2 17 5 13 3 -3 4 -12 1 -19z m-17 -328 l-6 -235
-2 222 c-1 122 1 229 4 238 4 9 7 15 8 13 0 -2 -1 -109 -4 -238z m1394 -27
c23 -40 66 -159 65 -183 0 -14 -13 12 -29 59 -30 91 -67 136 -105 127 -11 -3
-101 -10 -200 -17 -125 -8 -183 -16 -193 -25 -17 -18 -42 -18 -42 0 0 23 22
34 100 45 101 15 125 16 269 14 109 -1 126 -4 135 -20z m-434 -84 c-7 -11 -14
-19 -16 -16 -7 7 7 37 17 37 6 0 5 -9 -1 -21z m400 1 c0 -5 -13 -10 -30 -10
-16 0 -30 5 -30 10 0 6 14 10 30 10 17 0 30 -4 30 -10z m-110 -20 c8 -11 23
-20 33 -20 28 0 87 -30 87 -45 0 -17 34 -29 39 -14 3 10 41 -74 41 -91 0 -3
-46 -6 -102 -8 -71 -2 -110 -8 -126 -18 -22 -15 -23 -14 -13 5 20 36 13 66
-19 85 -32 18 -105 20 -127 3 -7 -5 -13 -6 -13 -1 0 5 -5 2 -10 -6 -6 -9 -10
-11 -10 -3 0 14 -30 6 -43 -11 -5 -6 -6 -2 -2 9 4 11 9 27 12 37 3 9 13 18 24
21 11 3 26 20 34 39 8 18 14 27 15 21 0 -8 14 -13 38 -12 l37 2 -35 7 -35 7
35 5 c84 12 125 9 140 -12z m-70 -137 c0 -4 -10 -17 -22 -30 -37 -40 -68 -22
-31 19 15 17 53 25 53 11z m-1173 -35 c-3 -7 -5 -2 -5 12 0 14 2 19 5 13 2 -7
2 -19 0 -25z m10 -150 c-2 -13 -4 -5 -4 17 -1 22 1 32 4 23 2 -10 2 -28 0 -40z"/>
<path d="M3510 3503 c-126 -21 -170 -97 -82 -142 54 -27 113 -34 176 -21 145
30 142 132 -5 160 -28 6 -54 9 -58 9 -3 -1 -17 -4 -31 -6z m154 -41 c43 -25
42 -59 -4 -86 -51 -30 -187 -30 -227 0 -77 57 -1 119 136 109 36 -3 77 -12 95
-23z"/>
<path d="M3464 3436 c-3 -9 -3 -24 1 -33 5 -12 9 -14 12 -5 3 6 11 12 18 12 7
0 16 -6 18 -12 3 -7 6 0 6 15 1 31 21 28 21 -4 0 -10 5 -19 10 -19 6 0 10 9
10 20 0 28 20 25 21 -2 1 -19 2 -19 6 -5 5 18 6 18 24 1 18 -17 19 -16 19 17
0 27 -3 31 -11 19 -8 -11 -12 -12 -16 -2 -6 15 -89 16 -98 2 -5 -8 -11 -7 -21
1 -11 9 -15 8 -20 -5z"/>
<path d="M7390 3140 l0 -50 58 0 c65 0 82 11 82 52 0 35 -24 48 -89 48 l-51 0
0 -50z"/>
<path d="M7388 2930 l4 -63 71 6 c75 5 97 19 97 63 0 34 -23 45 -102 51 l-73
6 3 -63z"/>
<path d="M1776 3221 c-4 -5 -2 -12 3 -15 5 -4 12 -2 15 3 4 5 2 12 -3 15 -5 4
-12 2 -15 -3z"/>
<path d="M1825 3221 c-3 -5 -1 -12 5 -16 5 -3 10 1 10 9 0 18 -6 21 -15 7z"/>
<path d="M2980 2662 c6 -13 14 -21 18 -18 3 4 -2 14 -12 24 -18 16 -18 16 -6
-6z"/>
<path d="M2720 2521 c0 -24 -4 -30 -17 -28 -10 2 -34 7 -53 11 -19 4 -54 3
-77 -2 -24 -6 -43 -8 -43 -6 0 3 19 13 43 24 33 15 37 19 18 19 -46 2 -151
-84 -151 -124 0 -12 29 -4 53 15 14 11 33 20 44 19 15 0 15 -1 -3 -9 -47 -19
-34 -28 33 -24 64 4 67 3 48 -12 -20 -16 -19 -16 5 -11 14 3 43 9 65 13 22 4
52 15 67 26 24 16 27 25 26 64 -2 34 -6 43 -16 39 -8 -3 -21 0 -28 6 -11 9
-14 6 -14 -20z m-60 -61 c-20 -13 -47 -13 -55 0 -4 6 9 10 32 10 28 0 34 -3
23 -10z"/>
<path d="M2874 2488 c3 -13 6 -26 6 -29 0 -3 15 -11 33 -18 18 -7 37 -23 43
-35 5 -11 20 -23 33 -24 21 -3 23 -1 19 27 -5 37 14 41 52 11 37 -29 51 -26
39 9 -11 30 -49 72 -49 54 0 -6 -16 -11 -35 -10 -27 1 -32 4 -23 14 14 18 -9
17 -42 -2 -33 -19 -37 -19 -43 5 -3 11 -13 20 -22 20 -13 0 -16 -6 -11 -22z"/>
<path d="M2758 2408 c-55 -29 -109 -98 -78 -98 6 0 10 -7 10 -15 0 -9 9 -15
23 -14 12 0 61 -3 108 -7 60 -5 88 -3 93 5 9 13 46 15 46 2 0 -5 -6 -12 -12
-15 -7 -3 -4 -5 7 -3 15 2 20 10 20 32 0 26 -3 30 -25 27 -65 -7 -76 -7 -88 5
-16 15 -88 17 -97 3 -11 -17 -25 -11 -25 10 0 13 13 28 34 41 22 13 33 26 29
35 -3 8 -6 14 -7 13 0 0 -18 -9 -38 -21z"/>
<path d="M3066 2386 c3 -8 13 -17 22 -21 13 -5 13 -2 -3 15 -21 24 -26 25 -19
6z"/>
<path d="M2990 2311 c0 -5 11 -34 26 -64 34 -77 41 -169 19 -275 -9 -46 -14
-86 -11 -90 11 -11 25 13 30 51 3 20 8 54 12 74 6 31 8 34 14 18 7 -19 8 -18
17 5 21 54 23 78 8 94 -8 8 -15 19 -15 25 0 6 -3 11 -8 11 -7 0 -32 70 -32 91
0 15 -39 69 -51 69 -5 0 -9 -4 -9 -9z"/>
<path d="M2336 2065 c-3 -8 -1 -15 4 -15 6 0 10 7 10 15 0 8 -2 15 -4 15 -2 0
-6 -7 -10 -15z"/>
<path d="M2685 1890 c3 -5 8 -10 11 -10 2 0 4 5 4 10 0 6 -5 10 -11 10 -5 0
-7 -4 -4 -10z"/>
<path d="M3965 2641 c-76 -45 -111 -123 -102 -223 18 -198 260 -256 358 -85
19 33 24 56 24 112 0 41 -6 78 -13 90 -9 13 -12 14 -9 4 3 -9 8 -38 11 -65 3
-29 2 -37 -2 -19 -4 17 -15 31 -25 33 -14 3 -17 -4 -17 -42 0 -48 -24 -86 -55
-86 -51 0 -76 104 -35 148 21 23 14 32 -8 10 -9 -9 -12 -5 -14 18 -1 16 -4
-15 -7 -69 -8 -127 -25 -131 -29 -7 -2 81 0 97 15 109 17 13 17 13 1 8 -14 -5
-18 -1 -18 21 0 37 10 49 45 55 17 2 3 5 -30 5 -43 2 -69 -3 -90 -17z m25
-131 c0 -5 -9 -10 -19 -10 -16 0 -21 -9 -27 -45 -6 -46 5 -75 31 -75 18 0 25
24 25 86 0 30 5 54 10 54 6 0 10 -36 10 -89 0 -81 -2 -91 -22 -105 -27 -19
-36 -13 -14 9 21 21 21 39 0 31 -9 -4 -27 1 -40 9 -20 13 -24 24 -24 68 0 29
5 58 12 65 15 15 58 16 58 2z"/>
<path d="M4114 2487 c-3 -8 -4 -34 -2 -58 2 -36 7 -44 23 -44 18 0 20 7 20 55
0 44 -3 55 -18 58 -9 2 -20 -3 -23 -11z"/>
<path d="M5928 2205 l-17 -45 39 0 39 0 -18 40 c-10 22 -20 42 -22 45 -3 2
-12 -16 -21 -40z"/>
<path d="M6380 2240 c0 -49 1 -50 29 -50 68 0 104 36 81 80 -9 16 -21 20 -60
20 l-50 0 0 -50z"/>
<path d="M8804 2185 l1 -105 33 0 c44 0 98 24 111 48 6 12 11 39 11 62 0 33
-6 48 -29 71 -25 24 -38 29 -78 29 l-49 0 0 -105z"/>
<path d="M9209 2212 c-7 -20 -15 -40 -17 -44 -2 -5 14 -8 37 -8 l40 0 -18 40
c-24 54 -25 55 -42 12z"/>
<path d="M9789 2212 c-7 -20 -15 -40 -17 -44 -2 -5 14 -8 37 -8 l40 0 -18 40
c-24 54 -25 55 -42 12z"/>
<path d="M8161 2287 c-8 -10 -7 -18 2 -31 12 -16 14 -16 26 -2 14 16 9 46 -7
46 -5 0 -15 -6 -21 -13z"/>
<path d="M8127 2139 c-22 -30 -6 -59 33 -59 42 0 47 18 13 52 l-30 30 -16 -23z"/>
<path d="M1005 2230 c3 -5 8 -10 11 -10 2 0 4 5 4 10 0 6 -5 10 -11 10 -5 0
-7 -4 -4 -10z"/>
<path d="M2841 1526 c-13 -7 -20 -16 -15 -19 5 -3 20 0 33 7 13 7 20 16 15 19
-5 3 -20 0 -33 -7z"/>
<path d="M2806 1461 c-4 -7 -5 -15 -2 -18 9 -9 19 4 14 18 -4 11 -6 11 -12 0z"/>
<path d="M2770 1130 c-12 -8 -12 -10 5 -10 11 0 27 5 35 10 12 8 12 10 -5 10
-11 0 -27 -5 -35 -10z"/>
<path d="M7812 833 c-20 -8 -42 -59 -42 -98 0 -27 8 -44 29 -66 51 -50 118
-33 141 36 14 43 -1 97 -33 120 -21 15 -69 19 -95 8z"/>
<path d="M8640 805 c0 -46 7 -53 41 -35 37 20 15 80 -30 80 -6 0 -11 -20 -11
-45z"/>
<path d="M8926 756 c-3 -13 -9 -31 -12 -40 -5 -13 1 -16 29 -16 l35 0 -15 40
c-18 46 -28 50 -37 16z"/>
<path d="M4094 1405 c-3 -14 -12 -25 -20 -25 -8 0 -14 -7 -14 -15 0 -18 0 -18
56 -4 24 6 44 15 44 20 0 5 -12 6 -26 3 -25 -6 -26 -5 -22 20 7 33 -9 34 -18
1z"/>
<path d="M4057 1323 c-4 -3 -7 -12 -7 -20 0 -11 4 -11 20 -3 11 6 18 15 15 21
-7 11 -19 12 -28 2z"/>
</g>
</svg>
