<?xml version="1.0" standalone="no"?>
<!DOCTYPE svg PUBLIC "-//W3C//DTD SVG 20010904//EN"
 "http://www.w3.org/TR/2001/REC-SVG-20010904/DTD/svg10.dtd">
<svg version="1.0" xmlns="http://www.w3.org/2000/svg"
 width="762.000000pt" height="1143.000000pt" viewBox="0 0 762.000000 1143.000000"
 preserveAspectRatio="xMidYMid meet">

<g transform="translate(0.000000,1143.000000) scale(0.100000,-0.100000)"
fill="#000000" stroke="none">
<path d="M1 7228 c1 -2312 4 -4194 6 -4183 3 11 14 32 24 47 11 14 19 29 19
33 0 3 11 21 25 39 14 18 25 36 25 40 0 14 73 112 108 146 38 35 115 80 139
80 7 0 22 4 33 10 11 5 29 14 40 20 11 5 26 10 34 10 8 0 16 7 20 15 3 9 18
15 35 15 16 0 33 5 36 10 3 6 48 10 98 10 67 1 87 3 75 11 -22 12 -24 57 -3
65 12 5 15 26 15 100 l0 94 -26 -10 c-40 -16 -79 -12 -98 9 -15 17 -17 30 -11
83 4 35 11 68 16 74 5 7 -8 18 -36 32 -30 14 -45 28 -45 41 0 10 -7 21 -15 25
-20 7 -20 65 0 72 38 15 2 57 -48 58 -27 1 -32 5 -35 29 -2 16 5 38 17 53 28
36 28 80 0 87 -19 5 -21 11 -15 45 4 30 2 41 -9 46 -12 4 -14 20 -11 80 3 57
1 78 -10 87 -18 14 -18 49 -1 74 17 25 47 133 47 169 0 14 8 38 17 53 17 25
16 26 -11 48 -33 26 -33 68 -1 73 11 2 25 13 30 25 6 12 21 27 33 32 23 10 23
13 17 82 -6 62 -4 74 9 79 9 3 16 11 16 17 0 6 7 19 17 29 11 12 17 37 17 79
1 52 4 64 24 77 19 12 22 23 22 78 0 56 4 67 29 96 16 19 31 45 33 58 2 21 9
26 41 28 41 4 45 9 21 27 -26 18 -30 99 -8 132 11 16 21 39 24 53 3 13 16 30
29 36 13 7 31 28 40 47 32 69 77 101 166 118 60 11 105 50 105 90 0 16 7 32
15 36 8 5 18 26 23 48 l8 40 59 0 c33 0 62 3 65 6 19 24 117 99 128 99 9 0 30
11 48 25 37 28 66 32 84 10 7 -8 19 -15 27 -15 12 0 13 3 3 14 -6 8 -10 25 -8
38 2 19 9 23 37 24 34 0 43 8 55 47 4 12 14 18 28 17 34 -3 68 10 68 26 0 7
13 20 29 28 30 16 41 40 44 91 2 29 3 30 50 28 40 -2 47 0 47 16 0 36 28 46
112 42 60 -2 78 0 78 10 1 24 97 100 133 106 26 4 40 -1 64 -21 17 -14 35 -26
39 -26 5 0 29 29 53 65 24 36 49 65 57 65 8 0 14 8 14 18 0 9 19 35 41 57 38
38 43 40 102 39 42 0 66 5 73 14 14 18 48 12 52 -10 7 -34 64 -88 94 -88 21 0
32 -7 40 -25 9 -19 19 -25 45 -25 18 0 33 4 33 10 0 5 9 14 20 20 26 14 85 -3
99 -28 8 -14 11 -14 35 1 14 10 26 24 26 31 0 26 29 37 121 47 l93 9 29 -36
c29 -34 33 -36 74 -30 48 6 96 -11 107 -39 9 -23 8 -73 -2 -79 -4 -2 -6 -22
-4 -43 3 -28 10 -42 25 -48 12 -6 24 -19 26 -30 5 -29 34 -48 44 -29 4 8 16
14 26 14 27 0 81 -30 81 -45 0 -20 26 -65 47 -80 10 -7 51 -16 92 -20 60 -6
74 -11 78 -26 3 -11 12 -19 19 -19 8 0 17 -7 20 -15 4 -8 18 -15 34 -15 35 0
60 -28 60 -68 0 -36 14 -47 52 -43 22 2 30 -3 37 -22 6 -14 15 -28 20 -32 6
-3 11 -15 11 -26 0 -14 7 -19 29 -19 32 0 81 -48 81 -80 0 -10 7 -20 15 -24
11 -4 14 -20 12 -71 -3 -46 1 -69 10 -77 8 -6 13 -21 12 -32 -3 -34 13 -87 27
-93 24 -9 42 -66 43 -138 1 -72 17 -125 38 -125 15 0 33 -32 33 -59 0 -11 9
-25 20 -31 16 -8 20 -21 20 -59 0 -55 -15 -90 -54 -126 -25 -23 -27 -29 -20
-73 5 -37 14 -53 40 -75 22 -18 34 -37 34 -53 0 -14 7 -27 15 -30 21 -9 42
-60 50 -121 4 -29 10 -55 15 -58 9 -6 12 -144 3 -159 -14 -22 0 -93 28 -149
16 -32 29 -65 29 -74 0 -26 -37 -78 -67 -94 -15 -8 -32 -21 -38 -29 -12 -19
-24 -100 -14 -100 4 0 17 -16 29 -36 19 -29 22 -45 17 -87 -7 -62 -29 -109
-62 -134 -24 -17 -24 -20 -10 -47 8 -15 15 -39 15 -52 0 -17 6 -24 20 -24 28
0 34 -21 24 -78 -7 -38 -13 -48 -32 -50 -18 -3 -22 -10 -22 -37 0 -21 -6 -38
-16 -43 -15 -8 -15 -10 0 -15 19 -8 22 -65 4 -72 -9 -4 -12 -28 -10 -84 4 -91
-6 -118 -45 -123 -19 -2 -32 -12 -41 -31 -11 -22 -19 -28 -37 -25 -33 7 -49
-27 -40 -81 10 -59 -12 -83 -67 -75 -26 5 -44 2 -56 -8 -9 -7 -29 -20 -45 -28
-15 -7 -36 -29 -47 -47 -18 -31 -24 -34 -63 -33 -52 2 -84 -7 -91 -27 -4 -11
-14 -13 -32 -9 -28 7 -53 -14 -54 -46 0 -24 -60 -50 -106 -46 -34 3 -40 7 -45
33 -6 28 -7 28 -8 4 0 -14 -6 -30 -13 -37 -9 -9 -9 -12 3 -12 9 0 34 -16 56
-35 23 -19 46 -35 52 -35 6 0 20 -4 31 -10 11 -5 29 -14 40 -20 11 -5 26 -10
34 -10 16 0 66 -25 75 -37 21 -28 74 -53 115 -53 25 0 48 -4 51 -10 3 -5 24
-10 45 -10 21 0 42 -4 45 -10 3 -5 16 -10 27 -10 12 0 36 -11 54 -25 18 -14
39 -25 48 -25 8 0 17 -4 20 -9 6 -8 31 -14 119 -27 20 -4 40 -10 43 -15 3 -5
18 -9 34 -9 16 0 32 -4 35 -10 3 -5 24 -10 46 -10 26 0 42 -5 45 -15 4 -8 16
-15 29 -15 22 0 129 -51 150 -71 5 -5 15 -9 23 -9 12 0 14 21 8 132 -4 73 -9
157 -12 187 -7 60 20 169 44 178 7 3 22 24 33 47 11 22 33 61 49 86 15 25 29
55 29 67 1 12 5 25 11 28 6 3 10 14 10 23 1 27 52 93 86 112 39 20 143 114
173 156 13 18 33 36 45 42 11 5 33 15 47 21 47 23 90 10 121 -34 23 -33 27
-51 28 -106 0 -38 -5 -70 -12 -77 -9 -9 -9 -12 3 -12 27 0 79 -31 95 -56 10
-15 30 -26 52 -30 57 -9 95 -30 117 -63 11 -17 32 -33 46 -36 38 -8 94 -67
162 -165 78 -115 87 -135 87 -189 0 -26 6 -53 13 -59 19 -20 17 -220 -3 -235
-29 -23 -85 -108 -136 -207 -7 -14 -27 -39 -44 -55 -16 -16 -30 -33 -30 -38 0
-5 -19 -30 -42 -57 -60 -66 -68 -102 -68 -294 0 -99 -4 -167 -10 -171 -13 -8
-13 -378 0 -391 5 -5 11 -122 13 -264 2 -140 8 -286 15 -325 6 -38 16 -113 22
-165 6 -52 15 -99 21 -104 5 -6 9 -45 9 -87 0 -43 5 -81 10 -84 6 -3 10 -16
10 -29 0 -28 44 -118 70 -141 14 -13 20 -31 20 -61 0 -24 5 -46 10 -49 6 -3
10 -22 10 -41 l0 -34 765 0 765 0 0 5715 0 5715 -3810 0 -3810 0 1 -4202z
m3886 880 c-3 -8 -6 -5 -6 6 -1 11 2 17 5 13 3 -3 4 -12 1 -19z m49 -16 c-8
-21 -12 -51 -9 -65 6 -29 -11 -37 -21 -11 -10 27 -7 56 6 48 8 -5 9 -2 4 12
-20 48 -19 54 7 54 26 0 26 0 13 -38z m54 29 c0 -6 -4 -13 -10 -16 -5 -3 -10
1 -10 9 0 9 5 16 10 16 6 0 10 -4 10 -9z m54 1 c3 -5 -1 -9 -9 -9 -8 0 -15 4
-15 9 0 4 4 8 9 8 6 0 12 -4 15 -8z m1054 -129 l-3 -137 -40 -12 c-22 -6 -53
-13 -70 -17 l-30 -5 -2 154 -2 154 75 0 75 0 -3 -137z m302 50 l0 -88 -75 -27
-75 -26 0 114 0 114 75 0 75 0 0 -87z m325 74 c-30 -21 -151 -87 -158 -87 -4
0 -7 23 -7 50 l0 50 92 0 c81 0 90 -2 73 -13z m214 -26 c80 -47 110 -146 80
-256 -24 -87 -139 -155 -262 -155 l-47 0 0 -140 0 -140 -75 0 -75 0 0 280 0
280 68 34 c37 19 99 57 137 84 80 56 100 58 174 13z m578 -96 c29 -71 53 -141
53 -154 0 -13 6 -29 14 -35 11 -9 64 -132 172 -401 4 -8 -100 -13 -142 -7 -6
1 -23 34 -38 72 l-28 71 -145 -3 -146 -3 -25 -67 c-29 -74 -35 -77 -127 -68
l-51 5 145 363 144 363 60 -3 60 -3 54 -130z m276 109 c21 -14 37 -28 34 -30
-5 -6 -108 34 -121 47 -23 21 52 7 87 -17z m104 -23 l26 -44 -32 19 c-18 10
-44 32 -59 47 l-27 29 33 -4 c26 -2 38 -11 59 -47z m413 43 c0 -4 -16 -32 -35
-64 -32 -53 -38 -58 -76 -62 -23 -2 -60 -1 -84 2 l-43 5 36 63 36 62 83 0 c46
0 83 -3 83 -6z m-3963 -41 c-3 -10 -5 -4 -5 12 0 17 2 24 5 18 2 -7 2 -21 0
-30z m506 -23 l6 -35 -12 38 c-7 21 -16 35 -20 31 -4 -4 -7 -3 -7 3 0 17 14
24 21 11 4 -7 9 -29 12 -48z m20 38 c9 -31 2 -33 -11 -3 -6 14 -8 25 -3 25 5
0 11 -10 14 -22z m245 -10 c4 -15 7 -17 14 -6 7 10 12 8 27 -9 10 -12 21 -20
23 -18 3 3 5 -3 5 -13 -1 -48 4 -82 11 -82 4 0 6 18 5 41 -1 37 0 39 16 25 17
-16 17 -40 -1 -151 -3 -16 -3 -22 -1 -12 3 12 14 17 38 17 46 0 65 -22 65 -77
0 -42 -2 -45 -22 -39 -13 3 -35 6 -50 6 -20 0 -29 7 -36 28 l-10 27 -1 -28
c-1 -18 -5 -27 -13 -24 -7 2 -12 14 -11 26 2 12 -1 20 -6 17 -5 -4 -7 3 -4 14
3 11 1 20 -5 20 -14 0 -22 38 -8 43 8 3 8 8 -1 18 -7 7 -14 31 -14 54 -1 25
-3 31 -6 15 -8 -48 -11 -51 -33 -33 -21 18 -27 57 -11 68 6 3 4 22 -5 47 -7
22 -14 44 -14 48 0 17 43 -4 48 -22z m-308 -8 c0 -11 -4 -20 -10 -20 -5 0 -10
9 -10 20 0 11 5 20 10 20 6 0 10 -9 10 -20z m221 6 c5 3 9 0 9 -6 0 -6 5 -8
10 -5 6 4 10 -7 10 -25 0 -19 -4 -29 -10 -25 -7 4 -9 -2 -4 -19 3 -15 2 -26
-4 -26 -5 0 -12 15 -16 33 -13 68 -16 92 -10 79 3 -6 10 -10 15 -6z m-654 -18
c-3 -8 -6 -5 -6 6 -1 11 2 17 5 13 3 -3 4 -12 1 -19z m599 -4 c4 -14 2 -35 -4
-47 -7 -14 -11 -17 -11 -7 -1 13 -2 13 -11 0 -8 -12 -10 -10 -10 10 0 63 24
92 36 44z m-619 -26 c-3 -8 -6 -5 -6 6 -1 11 2 17 5 13 3 -3 4 -12 1 -19z
m529 -26 c-11 -10 -15 4 -8 28 l7 25 3 -23 c2 -13 1 -26 -2 -30z m866 -85 c59
-82 83 -124 75 -128 -7 -4 -42 -10 -78 -13 l-67 -7 -23 33 c-13 19 -16 27 -7
20 12 -10 18 -10 23 -1 8 12 -14 31 -27 22 -5 -2 -15 1 -23 7 -13 11 -15 7
-15 -24 0 -22 -5 -36 -12 -36 -9 0 -8 -3 2 -10 21 -13 12 -18 -53 -25 -82 -10
-86 -2 -87 153 l0 122 34 0 c34 0 35 -1 41 -47 13 -104 19 -118 45 -118 28 0
30 14 18 112 -7 55 -5 57 52 61 8 1 53 -52 102 -121z m-1008 107 c9 -3 16 -17
16 -30 0 -13 5 -24 10 -24 6 0 10 -15 10 -32 -1 -32 -1 -32 -13 -10 -7 12 -17
19 -21 15 -5 -4 -5 6 -2 23 5 24 3 31 -9 31 -8 0 -15 -9 -15 -20 0 -11 -3 -18
-6 -14 -6 5 4 67 11 67 2 0 10 -3 19 -6z m268 -19 c3 -14 1 -25 -3 -25 -5 0
-9 11 -9 25 0 14 2 25 4 25 2 0 6 -11 8 -25z m-328 -40 c5 -22 4 -26 -4 -15
-8 12 -10 11 -10 -7 0 -16 -5 -21 -15 -17 -13 5 -13 8 0 21 8 8 15 24 15 35 0
28 5 21 14 -17z m3147 16 c31 -10 74 -22 97 -26 34 -5 46 -13 58 -37 l16 -31
21 25 c21 23 26 24 100 19 l78 -6 -58 -95 -58 -95 -5 -174 -5 -175 -65 2 c-36
0 -68 1 -72 2 -5 0 -8 77 -8 171 l0 171 -67 112 c-37 61 -73 121 -81 134 -17
27 -18 27 49 3z m-3011 -20 c0 -17 -4 -33 -10 -36 -6 -4 -10 8 -10 29 0 20 5
36 10 36 6 0 10 -13 10 -29z m-473 -3 c-3 -8 -6 -5 -6 6 -1 11 2 17 5 13 3 -3
4 -12 1 -19z m490 0 c-3 -8 -6 -5 -6 6 -1 11 2 17 5 13 3 -3 4 -12 1 -19z
m448 -30 c15 -26 14 -27 -15 -26 -31 1 -36 11 -23 56 6 25 10 23 38 -30z
m-578 -20 c-3 -8 -6 -5 -6 6 -1 11 2 17 5 13 3 -3 4 -12 1 -19z m46 -18 c3
-11 1 -18 -4 -14 -5 3 -9 12 -9 20 0 20 7 17 13 -6z m1647 -255 l0 -245 -75 0
-75 0 2 222 3 221 65 23 c36 13 68 23 73 24 4 0 7 -110 7 -245z m-1771 203 c0
-7 -4 -22 -9 -33 -7 -17 -9 -15 -9 13 -1 17 4 32 9 32 6 0 10 -6 9 -12z m38
-10 c-3 -8 -6 -5 -6 6 -1 11 2 17 5 13 3 -3 4 -12 1 -19z m30 -40 c-3 -7 -5
-2 -5 12 0 14 2 19 5 13 2 -7 2 -19 0 -25z m-50 -20 c-3 -8 -6 -5 -6 6 -1 11
2 17 5 13 3 -3 4 -12 1 -19z m1453 -178 l0 -200 -75 0 -74 0 -71 99 c-38 54
-70 103 -70 110 0 6 -18 30 -40 52 -22 23 -40 45 -40 49 0 7 108 30 142 30 8
0 27 -18 42 -40 27 -41 52 -54 42 -22 -3 9 -2 32 2 51 7 32 11 35 72 51 36 9
66 18 68 19 1 0 2 -89 2 -199z m-1413 148 c-3 -7 -5 -2 -5 12 0 14 2 19 5 13
2 -7 2 -19 0 -25z m-90 0 c-3 -8 -6 -5 -6 6 -1 11 2 17 5 13 3 -3 4 -12 1 -19z
m73 -13 c0 -14 -2 -25 -4 -25 -2 0 -6 11 -8 25 -3 14 -1 25 3 25 5 0 9 -11 9
-25z m-503 -37 c-3 -7 -5 -2 -5 12 0 14 2 19 5 13 2 -7 2 -19 0 -25z m470 -25
c-3 -10 -5 -4 -5 12 0 17 2 24 5 18 2 -7 2 -21 0 -30z m96 17 c3 -11 1 -20 -4
-20 -5 0 -9 9 -9 20 0 11 2 20 4 20 2 0 6 -9 9 -20z m469 8 c-7 -7 -12 -19
-12 -27 1 -12 3 -11 12 4 11 19 11 19 19 0 7 -19 8 -18 8 3 1 18 7 22 31 22
17 0 30 -5 30 -12 0 -9 3 -8 10 2 16 26 22 3 10 -41 -18 -67 -90 -174 -90
-134 0 8 -4 15 -9 15 -5 0 -12 12 -14 28 -4 25 -4 25 -6 -5 0 -18 4 -33 9 -33
13 0 13 -37 1 -44 -5 -4 -12 0 -14 6 -3 7 -6 3 -6 -9 -1 -13 -6 -23 -12 -23
-6 0 -8 11 -5 28 3 15 1 34 -5 42 -9 13 -10 12 -5 -2 3 -10 1 -18 -5 -18 -5 0
-7 -11 -3 -25 7 -30 -14 -64 -27 -43 -5 7 -9 22 -9 32 0 10 -7 24 -16 31 -13
9 -15 19 -9 41 l8 29 11 -28 c7 -15 15 -25 19 -21 3 4 0 21 -8 40 -12 28 -11
34 1 45 12 10 14 5 14 -26 0 -50 9 -41 11 10 0 22 6 59 12 83 10 35 15 42 36
42 19 0 22 -3 13 -12z m408 -93 c0 -63 -4 -105 -10 -105 -5 0 -10 -7 -10 -16
0 -8 5 -12 10 -9 6 4 10 -10 10 -35 l0 -41 -74 2 -74 2 -1 148 -1 148 68 4
c37 2 70 4 75 5 4 1 7 -45 7 -103z m-903 53 c-3 -7 -5 -2 -5 12 0 14 2 19 5
13 2 -7 2 -19 0 -25z m-90 0 c-3 -8 -6 -5 -6 6 -1 11 2 17 5 13 3 -3 4 -12 1
-19z m-215 -30 c-8 -8 -9 -4 -5 13 4 13 8 18 11 10 2 -7 -1 -18 -6 -23z m265
-55 c-3 -10 -5 -2 -5 17 0 19 2 27 5 18 2 -10 2 -26 0 -35z m70 25 c-3 -8 -6
-5 -6 6 -1 11 2 17 5 13 3 -3 4 -12 1 -19z m62 -19 c0 8 3 12 5 10 7 -6 -15
-89 -23 -89 -9 0 -35 89 -29 96 3 2 9 -10 14 -28 l8 -33 4 45 c5 43 5 43 12
15 4 -16 8 -24 9 -16z m-152 -11 c-3 -8 -6 -5 -6 6 -1 11 2 17 5 13 3 -3 4
-12 1 -19z m60 0 c-3 -8 -6 -5 -6 6 -1 11 2 17 5 13 3 -3 4 -12 1 -19z m125
-60 c5 -44 3 -46 -12 -17 -7 12 -8 33 -4 52 8 33 10 28 16 -35z m-92 42 c0 -5
-4 -10 -10 -10 -5 0 -10 5 -10 10 0 6 5 10 10 10 6 0 10 -4 10 -10z m172 -51
c-8 -28 -32 -37 -32 -13 0 14 30 47 37 40 1 -1 -1 -13 -5 -27z m118 12 c0 -26
-16 -35 -24 -15 -10 25 -7 34 9 34 8 0 15 -9 15 -19z m35 -68 c-6 -33 -25 -46
-25 -18 0 8 -4 15 -10 15 -11 0 -14 33 -3 44 4 3 13 -4 19 -16 12 -21 13 -19
8 17 -4 36 -3 37 6 15 6 -14 9 -40 5 -57z m-56 -15 c-1 -30 -2 -31 -8 -8 l-7
25 -7 -27 c-4 -16 -12 -28 -17 -28 -6 0 -6 9 0 26 15 38 10 53 -5 19 l-14 -30
-1 27 c0 15 5 30 10 33 6 3 10 16 10 27 0 19 1 19 20 -5 12 -15 20 -39 19 -59z
m-70 27 c0 -5 -4 -3 -9 5 -5 8 -9 22 -9 30 0 16 17 -16 18 -35z m-462 -22 c-3
-10 -5 -4 -5 12 0 17 2 24 5 18 2 -7 2 -21 0 -30z m-90 -5 c-3 -8 -6 -5 -6 6
-1 11 2 17 5 13 3 -3 4 -12 1 -19z m30 0 c-3 -8 -6 -5 -6 6 -1 11 2 17 5 13 3
-3 4 -12 1 -19z m683 2 c0 -11 -4 -20 -10 -20 -5 0 -10 9 -10 20 0 11 5 20 10
20 6 0 10 -9 10 -20z"/>
<path d="M5728 8003 c-16 -4 -18 -17 -18 -99 0 -55 4 -95 10 -95 20 -3 25 -4
39 -13 10 -6 16 -5 19 2 2 7 11 12 21 12 22 0 66 47 74 78 8 35 -12 81 -42 96
-32 17 -80 25 -103 19z"/>
<path d="M6390 7878 c0 -7 -18 -57 -39 -110 l-39 -98 90 0 c82 0 90 2 84 18
-60 163 -95 232 -96 190z"/>
<path d="M6197 7673 c-12 -11 -8 -23 8 -23 8 0 15 7 15 15 0 16 -12 20 -23 8z"/>
<path d="M4102 8070 c0 -14 2 -19 5 -12 2 6 2 18 0 25 -3 6 -5 1 -5 -13z"/>
<path d="M4160 7999 c0 -11 4 -18 10 -14 5 3 7 12 3 20 -7 21 -13 19 -13 -6z"/>
<path d="M4100 7993 c0 -4 5 -15 10 -23 8 -13 10 -13 10 2 0 9 -4 20 -10 23
-5 3 -10 3 -10 -2z"/>
<path d="M4270 7837 c0 -14 5 -29 10 -32 7 -4 8 3 4 22 -9 38 -14 42 -14 10z"/>
<path d="M3961 8054 c0 -11 3 -14 6 -6 3 7 2 16 -1 19 -3 4 -6 -2 -5 -13z"/>
<path d="M4213 7575 c6 -19 12 -33 14 -32 6 7 -9 67 -17 67 -5 0 -3 -16 3 -35z"/>
<path d="M4472 7600 c0 -14 2 -19 5 -12 2 6 2 18 0 25 -3 6 -5 1 -5 -13z"/>
<path d="M2651 7031 c-14 -26 -14 -31 3 -31 16 0 29 37 16 45 -5 3 -14 -3 -19
-14z"/>
<path d="M2563 6974 c-3 -8 -17 -20 -31 -25 -35 -14 -15 -31 23 -20 35 9 55 5
55 -13 0 -21 -32 -43 -80 -57 -25 -7 -60 -24 -79 -36 -40 -27 -38 -27 -107 -7
-31 9 -61 13 -69 10 -15 -5 -62 -74 -81 -116 -9 -21 -17 -25 -68 -27 -41 -2
-58 2 -62 12 -3 8 -21 19 -39 25 -30 10 -38 8 -74 -18 -22 -16 -58 -51 -79
-78 -21 -27 -46 -55 -56 -63 -10 -8 -24 -27 -32 -43 -10 -18 -26 -31 -44 -35
-23 -4 -30 -11 -30 -28 0 -16 -8 -25 -26 -29 -15 -4 -42 -19 -61 -33 -18 -14
-55 -30 -80 -34 -26 -5 -51 -16 -55 -24 -5 -8 -15 -21 -23 -29 -8 -8 -15 -23
-15 -34 0 -23 -18 -32 -66 -32 -22 0 -37 -6 -41 -16 -5 -13 -15 -15 -49 -9
-51 7 -91 -11 -117 -54 -53 -86 -129 -134 -193 -124 -25 4 -35 0 -58 -28 -21
-24 -26 -40 -22 -60 3 -16 0 -32 -8 -38 -14 -12 -28 -85 -31 -161 -1 -25 -2
-57 -3 -71 -3 -45 -59 -106 -109 -118 -57 -15 -72 -43 -53 -103 18 -59 23
-188 7 -192 -66 -18 -72 -22 -77 -56 -3 -20 -11 -34 -18 -32 -12 2 -14 -9 -16
-138 0 -36 -7 -75 -13 -87 -7 -12 -10 -34 -7 -52 5 -26 -1 -38 -46 -90 -55
-63 -58 -78 -22 -117 36 -38 54 -74 47 -91 -12 -30 -15 -162 -5 -168 6 -3 10
-16 10 -29 0 -12 5 -27 12 -34 19 -19 13 -121 -8 -137 -17 -12 -15 -16 16 -66
19 -30 47 -69 62 -87 15 -18 28 -41 28 -52 0 -11 15 -35 34 -54 26 -25 36 -46
41 -82 4 -27 13 -56 20 -64 33 -39 50 -88 50 -142 0 -75 23 -100 98 -108 42
-4 52 -9 54 -25 2 -11 -5 -31 -16 -44 -17 -22 -26 -24 -122 -27 -250 -8 -271
-12 -424 -86 -112 -54 -181 -101 -199 -136 -8 -15 -23 -36 -35 -46 -12 -11
-21 -23 -21 -27 0 -5 -19 -39 -43 -76 -41 -66 -58 -100 -80 -153 -5 -14 -13
-33 -18 -42 -5 -10 -9 -649 -9 -1468 l0 -1450 808 0 809 0 30 82 c21 56 30 93
26 115 -7 42 30 107 93 161 25 23 49 53 54 69 6 21 8 23 9 7 1 -11 8 -29 16
-40 22 -30 18 -42 -20 -58 -19 -9 -39 -25 -44 -38 -16 -41 6 -43 61 -6 29 20
80 49 113 65 33 16 84 46 114 66 59 41 82 48 52 16 -26 -28 -36 -76 -20 -95
10 -12 10 -17 0 -27 -10 -9 -15 -9 -24 4 -7 9 -23 19 -37 23 -14 4 -20 4 -13
-1 7 -5 9 -14 4 -22 -6 -9 -11 -10 -15 -2 -13 20 -46 12 -58 -14 -6 -14 -15
-25 -20 -25 -14 0 -9 -26 11 -47 14 -15 17 -23 8 -32 -14 -14 -40 -15 -32 -1
3 6 -1 10 -9 10 -14 0 -20 -12 -17 -32 3 -19 -21 -5 -29 17 -12 31 -49 34 -57
5 -7 -25 -12 -25 -29 -2 -12 16 -13 16 -19 -3 -11 -35 -75 -156 -95 -180 -9
-11 47 -14 359 -14 244 -1 372 2 376 9 3 5 15 10 26 10 11 0 17 -4 14 -10 -4
-7 94 -10 288 -10 l295 0 12 30 c11 25 10 37 -4 73 -22 58 -29 66 -54 70 -12
2 -25 6 -28 10 -11 11 -37 8 -57 -7 -16 -12 -23 -28 -26 -58 -1 -12 -36 -9
-49 4 -7 7 -12 20 -12 30 0 19 53 78 70 78 6 0 10 5 10 10 0 6 -15 11 -32 11
-21 1 -25 3 -12 6 11 2 35 17 52 33 18 16 32 25 32 21 0 -14 47 -30 58 -19 6
6 13 5 18 -4 19 -29 47 -116 53 -163 8 -60 16 -75 42 -75 11 0 37 -11 59 -25
l40 -25 985 0 c542 0 985 2 985 5 0 3 -9 15 -19 27 -27 28 -74 125 -68 141 2
6 8 0 12 -15 4 -16 11 -28 16 -28 5 0 9 -8 9 -17 0 -28 21 0 24 33 2 21 9 30
25 32 21 3 25 15 22 59 -1 11 3 24 8 28 15 9 14 42 -1 48 -10 3 -10 10 1 30
13 25 13 29 -5 42 -10 8 -26 15 -35 15 -22 0 -46 29 -54 65 l-6 30 29 -32 c19
-23 37 -33 56 -33 21 0 26 3 19 13 -19 23 -22 57 -6 72 8 8 13 23 11 32 -1 10
1 23 5 30 9 15 -3 93 -14 93 -5 0 -9 5 -9 11 0 6 6 9 13 6 11 -4 12 2 7 101
-3 50 3 139 10 147 15 19 22 55 10 55 -6 0 -8 -5 -4 -12 4 -7 3 -8 -4 -4 -8 5
-9 13 -3 25 11 21 10 61 -1 61 -4 0 -8 6 -8 14 0 8 -5 16 -11 18 -7 2 -13 17
-14 33 -2 17 -6 44 -10 61 -5 24 -3 33 9 37 15 6 15 9 1 37 -16 31 -17 91 -2
101 6 4 6 19 -1 37 -8 23 -7 40 1 63 9 25 9 33 0 36 -10 4 -9 12 3 35 13 26
14 38 5 69 -7 22 -9 65 -5 107 5 47 3 71 -5 76 -8 5 -8 13 0 28 6 12 9 43 6
72 -2 27 0 63 6 80 9 26 7 31 -16 48 -25 18 -40 47 -17 33 6 -3 10 1 10 10 0
9 -4 13 -10 10 -5 -3 -10 0 -10 7 0 19 21 189 27 218 9 42 11 150 3 145 -4 -3
-13 9 -20 25 -12 29 -14 30 -31 14 -16 -14 -19 -14 -19 -3 0 8 4 19 9 24 18
19 31 89 19 96 -9 6 -8 14 2 35 12 21 12 28 3 31 -15 5 -18 43 -3 43 6 0 10 5
10 11 0 6 -7 9 -15 5 -19 -7 -32 39 -16 58 9 10 9 16 1 21 -6 4 -18 -1 -26
-11 -12 -17 -14 -6 -13 91 1 91 5 116 22 148 11 20 24 37 28 37 5 0 15 17 25
38 9 20 27 57 41 82 13 25 29 57 34 73 6 15 15 27 20 27 5 0 9 9 9 20 0 11 5
20 10 20 6 0 10 5 10 11 0 11 25 39 35 39 3 0 18 12 33 26 15 14 46 37 70 51
34 20 40 28 31 39 -9 10 -6 22 10 49 24 41 12 48 -15 8 -26 -40 -92 -101 -146
-135 -59 -37 -77 -61 -126 -174 -21 -50 -63 -128 -93 -174 -46 -73 -54 -91
-53 -130 1 -25 6 -130 11 -235 9 -187 7 -228 -8 -188 -17 46 -169 107 -462
188 -92 25 -176 50 -185 55 -57 31 -161 62 -209 62 -45 1 -63 6 -103 34 -47
32 -98 58 -170 85 -19 7 -57 27 -85 45 -79 50 -132 74 -162 74 -35 1 -67 24
-60 44 3 8 24 20 46 26 43 11 82 51 76 78 -5 23 -21 61 -45 100 -11 17 -16 32
-12 32 14 0 58 -52 82 -97 13 -24 29 -43 35 -43 16 0 72 28 109 53 22 16 32
18 46 9 14 -8 35 -6 91 11 60 19 74 27 80 47 4 14 8 21 8 15 1 -5 5 -4 10 4 5
8 6 24 1 37 -17 43 9 97 44 93 56 -7 84 29 43 55 -14 8 -20 8 -27 -4 -16 -25
-46 1 -41 36 1 16 5 32 7 36 8 13 31 -2 42 -27 8 -17 17 -23 27 -18 9 3 27 0
41 -7 19 -11 27 -11 36 -2 7 7 22 12 35 12 35 0 41 29 12 53 -16 13 -20 21
-11 24 6 3 12 13 12 24 0 11 8 23 18 26 24 9 39 31 56 81 14 40 14 43 -5 61
l-21 19 22 7 c35 11 42 46 14 72 -13 12 -24 29 -24 38 0 8 -4 15 -10 15 -5 0
-10 14 -10 30 0 17 4 30 9 30 4 0 11 27 15 60 5 44 3 67 -9 89 -8 17 -15 37
-15 45 0 19 50 46 83 46 22 0 25 5 29 48 3 30 0 51 -7 57 -7 6 -13 28 -14 50
-4 93 -6 115 -13 115 -28 0 21 121 53 132 9 3 9 9 0 25 -17 33 -14 49 19 86
32 37 41 87 16 87 -23 0 -27 15 -31 98 -2 43 -8 78 -14 80 -6 2 -11 17 -11 34
0 27 -2 30 -25 24 -18 -5 -25 -2 -25 8 0 8 -12 28 -26 45 -14 17 -21 31 -16
31 19 0 20 74 2 105 -9 17 -15 38 -12 49 2 11 -7 29 -27 47 -17 15 -31 37 -31
49 0 34 28 90 42 85 7 -3 18 3 25 14 10 15 9 22 -1 30 -10 9 -15 8 -20 -4 -9
-25 -28 -6 -22 21 4 13 2 32 -3 41 -4 10 -18 37 -30 59 -21 43 -20 74 4 74 21
0 27 17 11 33 -8 8 -16 27 -18 42 -2 22 -11 31 -38 40 -49 16 -69 62 -72 165
-1 45 -6 84 -10 86 -13 8 -9 17 17 48 14 16 25 32 25 35 0 8 -45 57 -62 68 -7
4 -18 17 -24 27 -5 11 -19 20 -31 21 -35 3 -93 57 -93 89 0 13 -13 40 -29 60
-16 21 -31 41 -33 46 -2 5 -46 14 -98 20 -86 9 -97 13 -120 39 -14 16 -48 36
-80 47 -59 19 -107 55 -121 92 -11 29 -35 38 -63 23 -18 -10 -30 -10 -60 3
-20 8 -39 23 -42 33 -3 10 -12 30 -20 44 -16 31 -8 42 38 53 18 4 30 15 34 30
10 42 1 61 -31 64 -17 2 -34 8 -39 13 -20 19 -47 9 -62 -24 -11 -24 -26 -36
-55 -45 -52 -16 -63 -15 -83 7 -19 20 -63 21 -156 1 -20 -4 -78 -4 -130 0 -52
4 -103 3 -112 -1 -12 -7 -22 -4 -35 10 -10 10 -28 24 -41 30 -20 11 -26 10
-37 -5 -12 -17 -15 -16 -41 14 -32 36 -42 39 -51 16z m530 -886 c32 -6 60 -15
63 -19 3 -5 14 -9 25 -9 10 0 27 -4 37 -10 9 -5 51 -25 92 -43 140 -64 303
-255 385 -452 16 -38 16 -39 -2 -25 -10 8 -23 22 -30 31 -18 24 -129 78 -150
74 -10 -2 -35 -7 -56 -10 -31 -5 -36 -9 -27 -20 6 -8 17 -12 23 -10 7 3 18 1
26 -4 12 -8 13 -14 3 -35 -10 -23 -9 -26 7 -26 10 0 24 7 31 15 18 21 37 19
43 -6 5 -18 11 -21 40 -15 26 5 38 2 52 -14 10 -11 24 -20 30 -20 23 0 66 -42
90 -89 24 -49 51 -192 54 -291 1 -35 11 -74 26 -105 80 -165 86 -502 14 -789
-22 -87 -31 -109 -129 -311 -89 -182 -150 -313 -150 -320 0 -3 -13 -24 -30
-47 -16 -22 -30 -46 -30 -52 0 -6 -9 -16 -19 -21 -10 -6 -40 -25 -66 -43 -54
-39 -66 -37 -30 6 26 31 32 52 14 52 -6 0 -9 19 -7 46 3 49 -18 76 -29 36 -6
-23 -32 -29 -131 -27 -55 1 -75 6 -97 23 -22 17 -31 20 -42 11 -10 -9 -19 -7
-36 8 -30 28 -59 36 -68 21 -4 -7 -27 -13 -51 -14 -24 0 -52 -4 -64 -8 -14 -5
-26 -2 -36 8 -9 8 -27 18 -41 22 -15 3 -29 15 -32 25 -4 10 -15 24 -27 30 -15
8 -19 18 -16 45 2 21 -1 35 -9 38 -7 3 -13 12 -13 21 0 8 -4 23 -9 33 -89 176
-96 200 -107 340 -4 39 -10 72 -15 72 -5 0 -9 5 -9 12 0 6 3 8 7 5 3 -4 12 2
20 13 14 20 63 28 63 10 0 -5 -7 -7 -15 -4 -27 11 -17 -83 18 -153 21 -46 30
-24 23 61 -7 86 3 126 31 126 7 0 33 -22 59 -50 26 -27 52 -50 58 -50 6 0 23
-15 37 -33 17 -21 42 -37 73 -46 47 -14 76 -41 76 -73 0 -21 -16 -22 -50 -3
-34 19 -52 19 -48 -2 3 -16 13 -23 102 -75 87 -51 86 -50 29 -43 -61 8 -93 -6
-93 -40 0 -13 -6 -26 -12 -28 -10 -4 -9 -8 2 -16 10 -7 18 -6 27 1 10 8 13 6
13 -8 1 -23 46 -59 55 -44 7 12 48 13 59 3 4 -4 26 -9 49 -10 23 -2 37 1 30 5
-30 19 7 32 103 36 54 2 107 7 117 11 21 9 23 41 2 49 -19 7 -20 26 -2 26 8 0
23 10 35 23 17 18 21 31 16 54 -3 18 -1 33 5 37 13 9 15 46 2 46 -5 0 -23 -16
-40 -36 -29 -36 -32 -37 -103 -39 -57 -2 -79 1 -99 16 -19 13 -29 15 -37 7
-21 -21 -122 44 -122 79 0 7 -6 13 -13 13 -26 0 -142 66 -145 82 -4 20 33 33
88 30 19 0 78 -3 131 -4 94 -4 98 -5 154 -43 32 -22 70 -53 85 -68 l28 -29 46
21 c32 15 51 32 65 59 10 20 31 50 45 67 27 31 66 137 66 178 0 22 -7 46 -54
175 -9 23 -28 62 -43 85 -15 23 -28 44 -28 47 -2 18 -27 41 -70 66 -27 15 -56
34 -63 41 -16 15 -58 17 -67 3 -4 -6 6 -10 22 -10 34 0 88 -31 103 -59 6 -12
20 -21 30 -21 11 0 20 -7 20 -15 0 -8 -9 -15 -20 -15 -11 0 -20 4 -20 8 0 8
-74 25 -202 49 -31 5 -32 7 -18 34 9 16 7 19 -9 19 -21 0 -73 -20 -81 -32 -3
-4 -28 -17 -55 -30 -28 -13 -68 -36 -90 -51 -127 -88 -209 -138 -223 -135 -31
6 -28 47 9 120 5 10 11 41 15 70 3 29 10 68 15 87 10 40 5 50 -18 35 -15 -9
-63 -84 -79 -124 -4 -8 -11 -27 -18 -42 -16 -40 -39 -46 -31 -9 5 26 4 30 -15
28 -13 -1 -19 -6 -15 -15 3 -8 0 -21 -6 -29 -7 -7 -13 -28 -14 -46 -1 -18 -2
-50 -3 -71 -2 -37 -3 -38 -20 -23 -19 18 -41 22 -43 10 -1 -12 -7 -35 -18 -70
-7 -23 -6 -33 1 -33 6 0 4 -8 -5 -18 -21 -23 -21 -27 -1 -47 9 -9 13 -19 9
-23 -4 -4 -10 -1 -12 6 -5 14 -33 16 -33 2 0 -5 5 -10 10 -10 6 0 10 -5 10
-11 0 -7 -10 -9 -25 -7 -13 3 -23 2 -20 -2 2 -3 6 -20 9 -36 3 -16 10 -30 16
-32 5 -2 7 -8 4 -14 -3 -5 -8 -31 -11 -56 -5 -48 -46 -108 -66 -95 -5 3 -3 9
4 14 11 7 10 9 -4 9 -10 0 -29 11 -43 25 -30 30 -44 32 -44 6 0 -11 -9 -21
-22 -25 -19 -4 -20 -8 -10 -18 11 -11 16 -10 25 3 7 8 20 18 31 22 15 6 18 3
14 -18 -3 -14 -1 -25 3 -25 5 0 9 -8 9 -19 0 -19 -25 -31 -67 -31 -24 0 -33
-20 -10 -20 7 -1 4 -7 -7 -15 -10 -8 -24 -11 -30 -7 -27 17 -36 9 -36 -29 0
-24 4 -38 10 -34 6 3 10 1 10 -6 0 -8 5 -7 17 2 15 13 16 11 10 -13 -5 -18 -2
-32 10 -43 14 -14 14 -18 2 -25 -11 -7 -11 -12 -1 -22 19 -19 15 -28 -13 -28
-13 0 -28 -8 -34 -17 -8 -14 -14 -16 -27 -7 -10 6 -21 17 -25 25 -9 18 -48
105 -61 139 -6 14 -11 71 -12 127 0 56 -4 105 -8 109 -11 10 -10 81 0 86 13 5
1 98 -12 98 -21 0 -66 61 -66 90 0 16 -6 30 -12 33 -9 2 -13 31 -13 95 0 79 3
93 20 106 17 13 17 15 4 16 -12 0 -16 8 -15 25 1 30 4 30 28 8 17 -15 18 -15
18 10 0 49 18 28 25 -29 4 -38 10 -54 19 -51 7 3 13 -1 13 -9 0 -7 -6 -15 -13
-18 -16 -6 -7 -37 12 -49 7 -4 11 -14 8 -21 -8 -20 19 -26 41 -10 18 14 20 28
20 177 0 89 3 167 6 172 8 13 4 94 -5 102 -3 4 -6 1 -6 -5 0 -7 -4 -12 -10
-12 -5 0 -10 18 -10 40 0 22 3 39 8 39 26 -4 32 4 32 49 0 33 10 68 35 119 19
40 35 79 35 86 0 21 28 84 40 92 6 4 17 22 25 41 19 45 119 145 169 168 28 13
51 17 90 12 28 -3 100 -7 161 -8 91 -1 113 -4 129 -20 22 -20 34 -22 54 -10
10 7 10 15 -1 43 -8 19 -13 39 -10 45 2 6 -16 19 -39 29 -34 15 -74 19 -198
20 -85 1 -144 -1 -130 -5 24 -8 24 -8 2 -9 -12 -1 -31 -7 -42 -13 -17 -11 -22
-10 -30 2 -7 12 -4 16 15 18 17 2 25 10 25 23 0 10 5 19 10 19 6 0 10 7 10 16
0 13 3 14 14 5 11 -9 15 -7 19 10 6 24 -1 49 -14 49 -5 0 -9 -10 -9 -22 0 -18
-2 -20 -9 -8 -6 8 -7 18 -5 22 3 4 0 8 -6 8 -6 0 -10 10 -8 23 2 17 10 22 33
23 17 0 40 6 53 13 27 14 62 6 62 -15 0 -16 29 -64 39 -64 3 0 6 16 7 35 0 23
-4 35 -13 35 -17 0 -17 26 1 33 7 3 19 0 25 -6 8 -8 14 -8 23 1 10 10 10 14 1
20 -9 6 -4 13 16 25 25 14 32 15 43 4 11 -11 20 -11 48 -1 19 7 31 13 26 13
-19 2 29 30 51 31 12 0 29 7 37 15 12 13 20 14 37 5 12 -7 35 -10 52 -7 35 5
146 -18 161 -33 13 -13 49 -13 41 0 -3 6 -15 10 -26 10 -11 0 -17 5 -14 10 4
6 -6 10 -22 10 -16 0 -33 4 -38 9 -6 5 -28 12 -50 14 -22 2 -48 8 -58 12 -10
4 -33 5 -52 2 -19 -3 -35 -2 -35 2 0 4 -19 14 -42 22 l-43 14 35 6 c40 7 88 3
173 -13z m-673 -445 c0 -12 -52 -53 -61 -47 -13 8 2 35 25 44 27 11 36 12 36
3z m-80 -77 c0 -3 -4 -8 -10 -11 -5 -3 -10 -1 -10 4 0 6 5 11 10 11 6 0 10 -2
10 -4z m-172 -300 c-1 -26 -6 -33 -17 -28 -14 5 -14 3 -2 -11 10 -13 11 -24 2
-48 -15 -42 -14 -79 2 -80 6 0 2 -4 -10 -9 -24 -10 -28 -30 -23 -119 l2 -44
-31 6 c-18 4 -31 2 -31 -3 0 -19 -37 -10 -49 13 -10 18 -9 28 3 52 9 17 16 26
16 20 1 -20 20 21 20 42 0 12 5 34 12 50 7 15 12 33 13 38 0 6 6 20 13 33 7
12 9 22 5 22 -4 0 0 5 9 11 9 5 27 27 39 49 13 22 24 40 26 40 2 0 3 -15 1
-34z m-98 -391 c13 -16 4 -38 -13 -32 -7 2 -20 -7 -30 -20 -23 -29 -36 -22
-29 14 9 51 45 70 72 38z m1314 -232 c51 -26 96 -64 112 -95 8 -15 17 -70 21
-121 5 -79 3 -94 -11 -106 -22 -19 -32 -5 -35 47 -1 19 -21 4 -21 -16 -1 -25
-48 -74 -68 -70 -26 5 -27 34 -1 41 19 5 20 8 9 22 -10 12 -10 21 -2 40 6 14
9 32 6 40 -4 8 -1 22 6 31 25 29 -11 43 -163 64 -60 9 -82 8 -93 -1 -8 -6 -28
-9 -47 -6 -39 6 -43 4 -80 -46 -23 -31 -32 -36 -53 -31 -20 5 -26 2 -31 -16
-5 -17 -11 -20 -30 -15 -14 3 -30 2 -36 -4 -7 -5 -30 -6 -52 -2 -35 5 -40 10
-43 35 -3 26 -2 28 26 21 26 -5 30 -3 36 21 5 19 12 25 26 21 14 -4 21 3 29
24 7 22 16 29 35 29 17 0 30 9 43 30 10 18 33 36 58 45 22 8 58 22 80 30 52
20 233 12 279 -12z m-746 -81 c0 -9 3 -36 7 -59 6 -36 5 -43 -9 -43 -13 0 -16
12 -16 66 0 38 4 63 9 59 6 -3 9 -13 9 -23z m-778 -21 c0 -6 12 -9 27 -8 34 2
51 -29 65 -122 6 -36 16 -81 24 -99 17 -40 18 -50 2 -34 -30 30 -68 1 -68 -51
0 -14 -7 -30 -15 -37 -13 -11 -18 -10 -28 4 -18 25 -98 12 -138 -22 l-30 -25
-22 23 c-19 20 -20 22 -3 16 28 -10 46 12 46 55 0 22 4 39 10 39 5 0 8 17 7
38 l-2 37 50 3 c27 2 55 8 61 13 19 15 3 60 -27 78 -33 19 -36 32 -12 72 16
27 53 41 53 20z m837 -133 c-3 -8 -6 -5 -6 6 -1 11 2 17 5 13 3 -3 4 -12 1
-19z m-869 -250 c23 -23 14 -47 -19 -50 -38 -4 -40 -7 -75 -118 -27 -87 -35
-177 -17 -188 6 -4 13 -23 17 -43 3 -19 15 -53 26 -74 25 -48 25 -45 -3 -45
-48 0 -97 108 -97 212 0 149 41 262 109 298 43 23 44 23 59 8z m75 -108 c-2
-29 2 -59 9 -67 22 -27 -9 -219 -38 -230 -27 -10 -47 18 -39 57 13 68 26 185
26 229 0 46 14 75 33 68 7 -2 10 -25 9 -57z m442 -50 c3 -6 -1 -7 -9 -4 -18 7
-21 14 -7 14 6 0 13 -4 16 -10z m1597 -19 c112 -71 159 -210 109 -322 -24 -53
-113 -143 -161 -162 -50 -21 -119 -31 -133 -19 -7 5 -21 12 -32 14 -11 3 7 8
40 12 91 10 127 22 173 58 55 42 85 105 90 191 4 58 1 75 -23 123 -18 36 -44
69 -77 95 -58 46 -51 51 14 10z m-1935 -33 c-3 -7 -5 -2 -5 12 0 14 2 19 5 13
2 -7 2 -19 0 -25z m263 2 c0 -5 -4 -10 -10 -10 -5 0 -10 5 -10 10 0 6 5 10 10
10 6 0 10 -4 10 -10z m148 -13 c8 12 51 -1 53 -17 1 -5 2 -16 3 -22 1 -7 7
-12 14 -11 21 5 52 -30 52 -58 0 -22 4 -26 20 -22 22 6 26 33 10 64 -7 13 -7
19 0 19 5 0 10 -6 10 -13 0 -8 7 -14 15 -14 9 0 14 6 11 14 -3 7 -1 13 5 13
13 0 0 -72 -14 -82 -6 -4 1 -10 16 -13 50 -13 28 -23 -50 -24 -95 0 -114 4
-107 27 4 11 3 13 -3 6 -4 -6 -19 -14 -33 -18 -14 -3 -19 -3 -12 0 18 9 16 58
-3 50 -10 -3 -17 3 -21 19 -3 14 -10 25 -15 25 -5 0 -9 9 -9 20 0 11 5 20 10
20 6 0 10 7 10 16 0 14 3 14 16 3 10 -9 18 -9 22 -2z m-76 -44 c-3 -14 1 -28
8 -33 8 -5 2 -11 -17 -18 -23 -7 -30 -7 -30 3 0 7 6 11 14 8 9 -3 13 3 13 21
0 15 -7 29 -16 33 -12 4 -13 8 -3 13 21 14 36 0 31 -27z m-41 -16 c-10 -9 -11
-8 -5 6 3 10 9 15 12 12 3 -3 0 -11 -7 -18z m79 -53 c0 -14 -3 -14 -15 -4 -8
7 -15 14 -15 16 0 2 7 4 15 4 8 0 15 -7 15 -16z m685 -24 c3 -5 -1 -10 -9 -10
-9 0 -16 5 -16 10 0 6 4 10 9 10 6 0 13 -4 16 -10z m-586 -51 c16 2 22 -2 19
-11 -6 -18 -36 -22 -53 -8 -18 15 -20 34 -2 23 6 -4 23 -6 36 -4z m1765 -85
c10 -25 7 -34 -9 -28 -8 4 -15 15 -15 25 0 23 16 25 24 3z m6 -53 c0 -12 -20
-25 -27 -18 -7 7 6 27 18 27 5 0 9 -4 9 -9z m-864 -263 c-3 -18 -11 -53 -17
-78 -6 -25 -16 -81 -24 -125 -32 -197 -40 -226 -65 -255 -23 -26 -45 -19 -30
11 7 12 7 25 2 36 -9 15 -11 14 -23 -5 -8 -12 -22 -22 -31 -22 -10 0 -18 -4
-18 -10 0 -5 -4 -10 -9 -10 -5 0 -8 12 -8 26 0 18 -12 38 -35 58 -19 18 -37
38 -40 46 -2 8 -11 11 -21 7 -15 -5 -14 -9 9 -32 32 -32 23 -48 -22 -39 -22 4
-34 2 -34 -5 0 -16 -20 -13 -27 4 -3 9 1 23 10 33 8 9 18 34 22 54 4 21 11 36
15 33 4 -3 7 17 7 43 0 59 34 135 69 151 14 6 40 11 59 11 18 0 46 6 62 14
101 49 123 62 127 73 11 28 29 13 22 -19z m-869 -28 c10 -11 21 -20 25 -20 5
0 32 -16 61 -36 49 -34 76 -77 56 -90 -5 -3 -9 -21 -9 -40 0 -27 -4 -34 -20
-34 -11 0 -25 9 -32 20 -9 13 -24 20 -45 20 -20 0 -33 5 -33 13 0 6 -16 23
-35 36 -19 13 -35 27 -35 32 0 13 34 11 48 -3 9 -9 12 -9 12 0 0 7 -15 29 -34
50 -27 29 -32 41 -25 55 13 23 45 22 66 -3z m163 -170 c0 -5 -2 -10 -4 -10 -3
0 -8 5 -11 10 -3 6 -1 10 4 10 6 0 11 -4 11 -10z m-159 -27 c12 -33 46 -66 58
-59 13 8 19 -16 11 -39 -7 -19 -9 -18 -19 8 -6 15 -14 27 -18 26 -31 -5 -52 2
-46 17 4 12 0 14 -21 8 -29 -7 -32 0 -13 39 16 34 35 34 48 0z m932 -180 c-7
-2 -19 -2 -25 0 -7 3 -2 5 12 5 14 0 19 -2 13 -5z m-213 -132 c0 -5 -9 -11
-20 -14 -20 -5 -26 3 -13 16 9 10 33 8 33 -2z m126 -88 c-12 -127 -18 -163
-27 -157 -5 3 -9 -4 -9 -15 0 -12 -6 -21 -14 -21 -7 0 -16 -9 -19 -21 -3 -12
-10 -18 -17 -14 -8 5 -7 13 3 28 8 12 20 40 27 62 7 22 16 45 20 50 5 6 11 40
15 78 4 37 12 67 17 67 6 0 8 -23 4 -57z m-528 0 c-2 -10 3 -24 12 -31 9 -8 2
-7 -17 3 -22 10 -30 20 -27 30 9 21 36 19 32 -2z m399 -25 c10 -18 5 -140 -7
-152 -5 -5 -10 -20 -10 -32 0 -13 -4 -26 -10 -29 -14 -9 -13 -35 2 -35 6 0 22
10 35 22 l23 21 0 -21 c0 -12 -4 -22 -8 -22 -5 0 -6 -26 -4 -59 4 -51 1 -60
-17 -73 -11 -8 -18 -18 -14 -22 4 -4 0 -4 -10 0 -13 5 -16 2 -11 -12 4 -14 3
-16 -4 -5 -8 11 -19 8 -63 -15 -30 -16 -55 -32 -57 -36 -2 -5 -9 -8 -16 -8 -7
0 -25 -14 -42 -31 -16 -17 -44 -38 -62 -46 -26 -11 -32 -18 -27 -33 4 -12 2
-20 -5 -20 -6 0 -8 5 -5 10 13 21 -43 9 -70 -15 -15 -14 -41 -29 -58 -32 -16
-3 -39 -15 -49 -25 -28 -28 -34 -14 -9 20 23 34 28 81 9 101 -11 10 -9 15 7
26 11 8 25 18 31 23 19 17 48 29 83 36 60 11 151 48 144 59 -13 21 -169 -18
-181 -45 -2 -5 -17 -8 -33 -8 -16 0 -29 -4 -29 -8 0 -10 -45 -32 -65 -32 -8 0
-15 7 -15 15 0 11 -7 13 -29 9 -23 -5 -32 -2 -40 14 -15 29 -14 37 5 21 22
-18 122 -15 143 5 8 9 10 16 4 16 -6 0 -11 18 -11 39 -1 37 1 39 35 46 25 4
40 2 52 -9 25 -23 41 -20 41 9 0 16 6 25 15 25 13 0 48 17 74 37 3 2 -4 10
-15 18 -15 11 -16 14 -3 15 8 0 20 -5 26 -11 7 -7 13 -7 17 0 4 5 -5 18 -19
27 -23 15 -24 18 -9 29 15 11 14 13 -9 19 -30 7 -37 26 -9 26 35 0 62 -13 62
-29 0 -19 48 -25 67 -9 9 7 20 2 39 -19 15 -15 24 -22 20 -15 -8 14 10 17 19
2 9 -15 25 -12 25 5 0 7 -8 19 -17 24 -10 6 -14 11 -9 11 5 0 -14 24 -43 54
-28 30 -51 60 -51 65 0 14 23 14 37 0 13 -13 33 -4 33 16 0 17 49 54 72 55 9
0 20 -6 25 -12z m-300 -100 c-3 -8 -6 -5 -6 6 -1 11 2 17 5 13 3 -3 4 -12 1
-19z m-57 -23 c0 -9 -6 -12 -15 -9 -8 4 -15 10 -15 15 0 5 7 9 15 9 8 0 15 -7
15 -15z m495 -45 c-5 -32 -3 -41 9 -46 9 -3 16 -13 16 -22 0 -22 -60 -82 -83
-82 -10 0 -16 4 -13 8 3 5 6 25 8 45 1 21 6 37 10 37 4 0 8 9 8 20 0 27 27 80
41 80 7 0 8 -14 4 -40z m-288 24 c-3 -3 -12 -4 -19 -1 -8 3 -5 6 6 6 11 1 17
-2 13 -5z m-221 -20 c35 -14 73 -48 74 -65 0 -4 -13 -12 -29 -19 -16 -6 -31
-20 -34 -31 -7 -26 -23 -24 -53 8 -23 24 -23 27 -8 44 16 17 15 20 -7 38 -13
11 -28 21 -34 21 -16 1 18 20 36 20 9 0 34 -7 55 -16z m-116 -110 c0 -2 -7 -4
-15 -4 -8 0 -15 4 -15 10 0 5 7 7 15 4 8 -4 15 -8 15 -10z m-20 -44 c0 -5 -4
-10 -9 -10 -6 0 -13 5 -16 10 -3 6 1 10 9 10 9 0 16 -4 16 -10z m-25 -220 c3
-5 1 -10 -4 -10 -6 0 -11 5 -11 10 0 6 2 10 4 10 3 0 8 -4 11 -10z m25 -51 c0
-10 -4 -19 -10 -19 -5 0 -10 12 -10 26 0 14 4 23 10 19 6 -3 10 -15 10 -26z
m170 -29 c0 -5 -5 -10 -11 -10 -5 0 -7 5 -4 10 3 6 8 10 11 10 2 0 4 -4 4 -10z
m2257 -742 c-3 -8 -6 -5 -6 6 -1 11 2 17 5 13 3 -3 4 -12 1 -19z m-20 -85 c-3
-10 -5 -4 -5 12 0 17 2 24 5 18 2 -7 2 -21 0 -30z m-2663 -209 c99 -3 159 -1
177 6 32 14 68 -2 112 -48 26 -27 35 -51 54 -132 3 -14 14 -36 23 -50 10 -14
25 -51 34 -82 9 -32 21 -58 26 -58 6 0 10 -27 10 -60 0 -32 4 -69 9 -82 5 -13
14 -43 21 -68 7 -25 21 -61 31 -81 11 -20 19 -47 19 -60 -1 -62 -37 31 -125
326 -34 111 -56 177 -65 190 -4 6 -10 23 -14 40 -10 40 -20 51 -85 92 -53 34
-57 35 -105 24 -28 -6 -152 -15 -275 -21 -122 -5 -226 -12 -231 -15 -4 -2 -69
-5 -145 -6 -154 -1 -185 -9 -186 -48 0 -14 -3 -21 -5 -14 -4 9 -13 9 -30 2
-47 -17 -64 -12 -64 20 0 38 39 67 100 74 25 3 82 12 128 20 46 9 122 16 170
16 53 0 103 7 127 16 27 10 57 13 90 9 28 -3 117 -8 199 -10z m126 -108 c0
-18 -16 -29 -30 -21 -13 8 -1 35 16 35 8 0 14 -6 14 -14z m85 -7 c12 -19 -5
-23 -22 -6 -16 16 -16 17 -1 17 9 0 20 -5 23 -11z m35 -60 c-18 -32 -22 -19
-11 29 1 2 6 0 11 -3 7 -4 7 -13 0 -26z m-980 7 c0 -11 -19 -15 -25 -6 -3 5 1
10 9 10 9 0 16 -2 16 -4z m86 -21 c7 -18 -32 -75 -52 -75 -17 0 -18 11 -1 41
28 54 42 63 53 34z m780 -17 c25 -9 39 -9 59 0 22 10 25 9 25 -8 0 -11 -8 -24
-19 -29 -22 -12 -141 -11 -141 1 0 5 4 7 9 4 5 -3 12 5 15 19 7 29 8 29 52 13z
m164 -65 c0 -13 -4 -23 -10 -23 -5 0 -10 14 -10 31 0 17 -4 28 -10 24 -6 -4
-10 6 -10 22 l0 28 20 -30 c11 -16 20 -40 20 -52z m-259 25 c-11 -10 -14 -10
-18 0 -3 6 -11 12 -19 12 -9 0 -12 -4 -9 -10 3 -5 2 -10 -4 -10 -26 0 -18 20
11 28 38 10 59 -1 39 -20z m-85 11 c3 -6 0 -15 -7 -20 -10 -6 -5 -10 19 -15
24 -5 32 -12 32 -29 0 -24 -3 -23 92 -29 78 -5 106 -23 88 -56 -8 -14 -8 -20
0 -20 6 0 8 -4 5 -10 -3 -6 4 -10 17 -10 20 1 21 2 6 11 -26 15 -22 29 8 29
22 0 25 -3 20 -30 -4 -29 5 -36 37 -31 4 0 7 -3 7 -8 0 -5 11 -12 25 -15 14
-4 25 -11 25 -17 0 -6 -4 -7 -10 -4 -6 3 -7 -1 -4 -9 14 -36 23 -12 19 47 -2
34 -2 53 1 42 3 -11 10 -24 15 -30 5 -5 9 -19 9 -32 0 -13 5 -23 10 -23 6 0
10 -9 10 -20 0 -11 11 -45 25 -76 14 -31 25 -63 25 -70 0 -16 -16 -19 -22 -5
-1 5 -14 11 -28 13 -14 1 -29 8 -33 13 -6 6 -10 6 -14 -2 -6 -15 -49 -17 -58
-3 -3 6 -12 10 -18 10 -9 0 -9 -2 0 -8 7 -4 9 -13 4 -20 -6 -10 -10 -10 -20 1
-8 11 -21 13 -45 7 -19 -4 -46 -5 -60 -3 -15 3 -26 1 -26 -6 0 -11 -68 -10
-86 2 -6 3 -16 2 -24 -3 -7 -4 -18 -6 -25 -4 -6 3 -18 -2 -25 -10 -7 -9 -16
-14 -20 -11 -4 3 -15 -6 -24 -20 -9 -14 -23 -25 -31 -25 -16 0 -20 16 -6 24
15 9 51 94 51 119 0 24 -21 47 -77 86 -28 19 -47 22 -143 24 -60 1 -110 -1
-110 -5 0 -16 -41 -30 -55 -18 -11 9 -14 6 -17 -12 -2 -13 -11 -24 -23 -27
-11 -2 -23 -8 -27 -15 -5 -7 -8 -5 -8 7 0 9 6 17 14 17 16 0 26 21 26 53 0 19
-3 18 -21 -10 -18 -28 -24 -31 -40 -22 -24 13 -37 41 -21 47 7 2 12 11 11 20
0 11 -2 12 -6 5 -2 -7 -10 -13 -16 -13 -6 0 10 20 35 45 26 25 50 45 54 45 5
0 3 -5 -4 -12 -15 -15 -16 -38 -1 -38 6 0 9 7 5 15 -4 10 1 15 14 15 11 0 19
5 17 12 -1 7 12 15 28 19 19 4 23 7 10 8 -11 1 -27 6 -35 12 -13 9 -12 10 2 5
13 -4 19 3 24 29 3 19 12 39 19 45 29 24 367 41 381 19z m174 -50 c0 -13 -13
-11 -35 5 -18 13 -18 14 8 9 15 -3 27 -9 27 -14z m-70 1 c0 -5 7 -10 15 -10 8
0 15 -7 15 -15 0 -8 -5 -15 -11 -15 -5 0 -8 4 -4 9 3 5 -4 12 -15 16 -20 7
-28 25 -10 25 6 0 10 -4 10 -10z m110 0 c0 -5 -7 -10 -16 -10 -8 0 -12 5 -9
10 3 6 10 10 16 10 5 0 9 -4 9 -10z m2562 -32 c-9 -9 -12 -7 -12 12 0 19 3 21
12 12 9 -9 9 -15 0 -24z m-3232 -9 c0 -5 -7 -9 -15 -9 -15 0 -20 12 -9 23 8 8
24 -1 24 -14z m820 -11 c0 -25 -3 -29 -10 -18 -13 20 -13 50 0 50 6 0 10 -15
10 -32z m-1053 -40 c-3 -7 -5 -2 -5 12 0 14 2 19 5 13 2 -7 2 -19 0 -25z m957
17 c-4 -8 -9 -15 -13 -15 -4 0 -8 7 -8 15 0 8 6 15 13 15 8 0 11 -6 8 -15z
m-924 -76 c0 -6 -4 -7 -10 -4 -5 3 -10 11 -10 16 0 6 5 7 10 4 6 -3 10 -11 10
-16z m101 -79 c5 0 9 -9 9 -20 0 -22 -1 -23 -24 -14 -10 4 -16 18 -16 38 0 41
14 57 18 22 2 -14 8 -26 13 -26z m-81 20 c0 -5 -2 -10 -4 -10 -3 0 -8 5 -11
10 -3 6 -1 10 4 10 6 0 11 -4 11 -10z m24 -65 c3 -8 1 -15 -4 -15 -6 0 -10 7
-10 15 0 8 2 15 4 15 2 0 6 -7 10 -15z m466 0 c12 -14 9 -24 -19 -58 -59 -70
-75 -81 -100 -67 -38 20 -22 57 49 112 40 32 53 34 70 13z m403 -112 c-7 -2
-19 -2 -25 0 -7 3 -2 5 12 5 14 0 19 -2 13 -5z m237 -29 c0 -8 -4 -12 -10 -9
-5 3 -10 10 -10 16 0 5 5 9 10 9 6 0 10 -7 10 -16z m-520 -43 c0 -5 -7 -14
-15 -21 -12 -10 -15 -10 -15 2 0 8 3 18 7 21 9 10 23 9 23 -2z m-623 -236 c0
-8 -6 -16 -14 -19 -13 -5 -18 15 -6 27 11 11 20 8 20 -8z"/>
<path d="M3297 5950 c10 -11 23 -20 30 -20 7 0 13 -4 13 -10 0 -5 6 -7 14 -4
22 9 9 29 -28 42 -44 16 -49 15 -29 -8z"/>
<path d="M3430 5864 c0 -3 7 -12 15 -20 16 -17 18 -14 9 10 -6 15 -24 23 -24
10z"/>
<path d="M3501 5787 c-1 -11 43 -77 52 -77 12 0 8 18 -8 34 -8 8 -15 20 -15
26 0 6 -4 9 -9 6 -5 -4 -12 0 -14 6 -3 7 -6 10 -6 5z"/>
<path d="M2625 5750 c-3 -5 -1 -10 4 -10 6 0 11 5 11 10 0 6 -2 10 -4 10 -3 0
-8 -4 -11 -10z"/>
<path d="M3030 5550 c0 -5 7 -10 16 -10 8 0 12 5 9 10 -3 6 -10 10 -16 10 -5
0 -9 -4 -9 -10z"/>
<path d="M2682 5529 c2 -6 8 -10 13 -10 5 0 11 4 13 10 2 6 -4 11 -13 11 -9 0
-15 -5 -13 -11z"/>
<path d="M3105 5489 c-4 -6 -4 -13 -1 -16 8 -8 36 5 36 17 0 13 -27 13 -35 -1z"/>
<path d="M2639 5479 c-38 -10 -86 -37 -123 -69 -18 -16 -43 -31 -54 -33 -26
-4 -72 -38 -66 -49 3 -5 9 -6 14 -3 5 3 11 1 15 -5 4 -6 -5 -10 -19 -10 -19 0
-27 -7 -32 -27 -4 -14 -2 -34 5 -45 9 -14 8 -18 -4 -18 -8 0 -15 8 -16 18 0
14 -2 14 -8 -3 -5 -11 -5 -25 0 -31 5 -6 6 -14 2 -17 -3 -4 3 -7 15 -7 15 0
24 8 28 25 5 19 11 24 25 20 12 -4 21 -1 25 9 3 9 10 16 15 16 6 0 22 9 37 19
26 19 52 25 97 22 19 -1 19 -1 0 -15 -11 -7 -35 -17 -53 -21 -30 -6 -62 -28
-62 -43 0 -11 162 -5 192 7 30 11 88 4 88 -11 0 -16 -24 -34 -53 -42 -15 -3
-27 -10 -27 -15 0 -5 17 -5 38 1 20 5 62 14 92 20 30 6 64 17 74 24 12 8 25
10 35 4 26 -13 174 85 165 110 -3 8 -8 26 -11 40 -2 13 -8 27 -12 30 -4 3 -13
20 -20 38 -8 17 -20 32 -27 32 -8 0 -19 9 -26 20 -19 29 -40 26 -32 -5 4 -16
2 -25 -6 -25 -8 0 -10 -12 -5 -40 6 -38 -5 -55 -20 -30 -4 6 -18 10 -33 9 -15
0 -47 7 -72 16 -39 15 -57 15 -140 5 -52 -6 -107 -15 -121 -20 -35 -11 -57 3
-27 17 50 24 132 53 147 53 10 0 26 6 36 14 17 12 16 14 -17 18 -20 2 -46 1
-59 -3z m170 -151 c53 -12 68 -28 29 -28 -13 0 -32 -7 -42 -15 -26 -20 -56
-19 -86 2 -14 10 -26 17 -27 15 -2 -1 -3 1 -4 4 -1 9 43 32 63 33 9 1 39 -4
67 -11z m121 -38 c0 -5 -4 -10 -10 -10 -5 0 -10 5 -10 10 0 6 5 10 10 10 6 0
10 -4 10 -10z"/>
<path d="M3037 5467 c-3 -8 -2 -19 2 -25 10 -16 35 3 28 22 -8 19 -23 21 -30
3z"/>
<path d="M2800 5451 c0 -11 19 -26 45 -35 17 -6 17 -4 -4 18 -25 26 -41 33
-41 17z"/>
<path d="M3291 5398 c-1 -35 26 -107 41 -108 4 0 27 -13 51 -30 25 -16 52 -30
62 -30 12 0 15 -5 10 -19 -4 -13 3 -29 20 -47 14 -15 25 -22 25 -15 0 6 8 11
18 10 10 0 12 -3 5 -6 -22 -8 -14 -29 11 -28 33 0 38 7 42 60 4 40 1 47 -18
55 -21 8 -22 9 -3 11 57 6 94 -5 156 -47 70 -47 93 -54 85 -26 -2 9 -10 37
-17 61 -7 24 -21 48 -31 55 -10 6 -18 16 -18 22 0 11 -64 74 -75 74 -3 0 4
-15 15 -32 11 -18 20 -36 20 -40 0 -13 -39 -9 -71 7 -23 12 -38 14 -66 6 -20
-6 -39 -8 -41 -6 -9 8 43 55 61 55 9 0 17 5 17 11 0 28 -138 -20 -174 -60 -28
-31 -44 -26 -51 17 -11 63 -12 65 -39 47 -24 -16 -25 -16 -29 12 -3 24 -4 22
-6 -9z m202 -85 c-7 -2 -19 -2 -25 0 -7 3 -2 5 12 5 14 0 19 -2 13 -5z"/>
<path d="M3235 5280 c-7 -12 2 -30 16 -30 5 0 9 9 9 20 0 21 -15 27 -25 10z"/>
<path d="M3142 5269 c2 -6 8 -10 13 -10 5 0 11 4 13 10 2 6 -4 11 -13 11 -9 0
-15 -5 -13 -11z"/>
<path d="M3285 5230 c4 -6 11 -8 16 -5 14 9 11 15 -7 15 -8 0 -12 -5 -9 -10z"/>
<path d="M3320 5230 c0 -5 5 -10 11 -10 5 0 7 5 4 10 -3 6 -8 10 -11 10 -2 0
-4 -4 -4 -10z"/>
<path d="M3066 5200 c-22 -17 -48 -30 -59 -30 -35 0 -177 -160 -177 -199 0 -4
12 -7 27 -6 15 0 28 -6 29 -12 1 -7 2 -17 3 -23 0 -5 20 -10 44 -10 23 0 76
-6 117 -14 41 -8 130 -18 198 -22 119 -7 122 -6 122 14 0 17 8 22 44 27 25 4
49 4 55 1 17 -11 2 -34 -26 -41 -35 -8 -15 -28 23 -23 40 4 59 41 50 101 -6
38 -12 48 -30 53 -31 8 -126 -40 -126 -64 -1 -16 -1 -16 -11 1 -5 9 -8 21 -5
26 3 5 -4 11 -15 14 -15 4 -23 0 -26 -14 -7 -27 -17 -24 -29 10 -9 21 -23 32
-59 45 -78 26 -131 19 -177 -24 -30 -27 -52 -22 -56 14 -5 38 14 72 47 86 75
31 110 63 103 95 -6 32 -18 31 -66 -5z"/>
<path d="M3660 5180 c0 -5 7 -10 15 -10 9 0 18 -7 21 -15 4 -8 10 -13 14 -10
4 3 10 -4 13 -14 6 -25 47 -48 47 -28 0 8 -21 31 -47 51 -48 37 -63 43 -63 26z"/>
<path d="M3595 5099 c-4 -6 -5 -13 -2 -16 7 -7 27 6 27 18 0 12 -17 12 -25 -2z"/>
<path d="M3556 4991 c-20 -22 -20 -40 -2 -60 22 -24 93 -210 102 -266 12 -73
10 -312 -3 -370 -32 -141 -43 -219 -34 -249 5 -17 10 -25 10 -18 1 6 8 12 16
12 23 0 35 34 35 97 0 54 34 212 59 276 13 34 15 221 2 213 -5 -4 -14 15 -21
41 -6 27 -14 59 -17 73 -4 13 -12 31 -20 38 -7 7 -13 30 -13 50 0 28 -12 55
-49 109 -46 67 -50 71 -65 54z"/>
<path d="M3610 4596 c0 -8 5 -18 10 -21 6 -3 10 3 10 14 0 12 -4 21 -10 21 -5
0 -10 -6 -10 -14z"/>
<path d="M3780 4559 c-7 -11 -10 -30 -7 -40 3 -10 1 -19 -4 -19 -5 0 -9 -25
-9 -55 0 -32 -4 -55 -11 -55 -6 0 -9 -16 -7 -37 2 -21 7 -38 12 -38 15 0 43
105 53 196 6 61 -8 85 -27 48z"/>
<path d="M2112 4433 c0 -35 0 -35 19 -14 10 11 19 24 19 29 0 6 -9 12 -19 15
-16 4 -19 -1 -19 -30z"/>
<path d="M3560 4160 c0 -11 5 -20 10 -20 6 0 10 9 10 20 0 11 -4 20 -10 20 -5
0 -10 -9 -10 -20z"/>
<path d="M2120 4090 c0 -19 3 -21 12 -12 9 9 9 15 0 24 -9 9 -12 7 -12 -12z"/>
<path d="M2860 4084 c0 -16 23 -44 35 -44 20 0 19 20 -2 36 -19 14 -33 18 -33
8z"/>
<path d="M3515 4080 c-7 -12 2 -30 16 -30 5 0 9 9 9 20 0 21 -15 27 -25 10z"/>
<path d="M3108 4058 c9 -9 15 -9 24 0 9 9 7 12 -12 12 -19 0 -21 -3 -12 -12z"/>
<path d="M2229 3820 c-13 -10 -20 -19 -16 -20 4 0 17 9 29 20 28 26 17 26 -13
0z"/>
<path d="M2827 3654 c-10 -11 13 -34 34 -34 11 0 19 7 19 15 0 8 -4 15 -9 15
-5 0 -16 2 -23 5 -8 3 -17 3 -21 -1z"/>
<path d="M1911 4394 c0 -11 3 -14 6 -6 3 7 2 16 -1 19 -3 4 -6 -2 -5 -13z"/>
<path d="M2385 3920 c-3 -5 -1 -18 4 -27 9 -16 10 -14 11 10 0 28 -5 34 -15
17z"/>
<path d="M2470 3850 c0 -5 5 -10 11 -10 5 0 7 5 4 10 -3 6 -8 10 -11 10 -2 0
-4 -4 -4 -10z"/>
<path d="M3240 3266 c-14 -8 -41 -19 -60 -24 l-35 -9 27 -11 c21 -9 33 -8 55
3 15 8 36 15 46 15 9 0 17 5 17 11 0 5 5 7 10 4 6 -3 10 1 10 9 0 20 -36 21
-70 2z"/>
<path d="M3282 3160 c0 -19 2 -27 5 -17 2 9 2 25 0 35 -3 9 -5 1 -5 -18z"/>
<path d="M3135 3109 c-11 -32 10 -45 29 -18 21 30 20 39 -3 39 -11 0 -23 -9
-26 -21z"/>
<path d="M3140 3010 c0 -13 40 -53 47 -47 6 7 -27 57 -38 57 -5 0 -9 -4 -9
-10z"/>
<path d="M3086 2406 c-52 -16 -59 -36 -12 -36 19 0 37 4 40 9 3 4 19 11 36 14
16 4 30 11 30 17 0 13 -45 11 -94 -4z"/>
<path d="M2925 2160 c3 -5 8 -10 11 -10 2 0 4 5 4 10 0 6 -5 10 -11 10 -5 0
-7 -4 -4 -10z"/>
<path d="M2062 775 c3 -17 12 -20 58 -20 58 0 90 9 90 26 0 6 -6 6 -18 0 -11
-6 -33 -6 -55 -1 -22 5 -39 4 -43 -2 -3 -5 -12 -4 -21 4 -13 10 -15 9 -11 -7z"/>
<path d="M2230 771 c0 -6 5 -13 10 -16 6 -3 10 1 10 9 0 9 -4 16 -10 16 -5 0
-10 -4 -10 -9z"/>
<path d="M2260 776 c0 -2 11 -6 25 -8 14 -3 25 -1 25 3 0 5 -11 9 -25 9 -14 0
-25 -2 -25 -4z"/>
<path d="M1922 613 c-17 -30 -15 -37 4 -19 8 9 14 22 11 29 -2 7 -8 4 -15 -10z"/>
<path d="M2625 560 c-3 -5 -1 -10 4 -10 6 0 11 5 11 10 0 6 -2 10 -4 10 -3 0
-8 -4 -11 -10z"/>
<path d="M2750 520 c0 -5 7 -10 16 -10 8 0 12 5 9 10 -3 6 -10 10 -16 10 -5 0
-9 -4 -9 -10z"/>
<path d="M2795 510 c-5 -8 -2 -18 8 -25 9 -7 14 -14 12 -17 -3 -3 1 -11 10
-18 12 -10 15 -10 15 3 0 9 -5 19 -11 22 -6 4 -14 16 -18 28 -6 15 -10 17 -16
7z"/>
<path d="M2846 425 c-3 -8 -1 -15 4 -15 6 0 10 7 10 15 0 8 -2 15 -4 15 -2 0
-6 -7 -10 -15z"/>
<path d="M4520 4900 c0 -5 5 -10 10 -10 6 0 10 5 10 10 0 6 -4 10 -10 10 -5 0
-10 -4 -10 -10z"/>
<path d="M4385 3640 c-3 -5 -1 -10 4 -10 6 0 11 5 11 10 0 6 -2 10 -4 10 -3 0
-8 -4 -11 -10z"/>
<path d="M5531 3331 c-27 -28 -56 -51 -64 -51 -17 0 -32 -34 -23 -49 9 -14
-14 -74 -35 -93 -12 -10 -19 -29 -19 -52 0 -19 -4 -38 -10 -41 -21 -13 -9 -49
29 -84 56 -53 131 -176 131 -215 0 -8 7 -19 15 -26 17 -14 19 -8 15 43 -1 23
2 28 17 25 13 -2 19 -14 21 -46 2 -26 -1 -42 -8 -42 -13 0 -43 -67 -37 -83 2
-6 12 3 22 21 11 18 27 32 37 32 10 0 26 4 36 10 9 5 30 15 46 20 26 9 28 14
23 45 -6 36 1 75 13 75 10 0 30 -47 30 -70 0 -11 6 -20 14 -20 18 0 39 26 32
39 -8 12 16 91 26 91 13 0 8 54 -6 73 -8 10 -35 25 -60 32 -40 12 -45 12 -50
-3 -3 -9 -3 0 0 22 11 81 83 146 162 146 23 0 42 5 45 13 3 8 10 7 26 -7 17
-15 21 -16 21 -4 0 25 -37 50 -82 55 -42 5 -44 4 -116 -69 -80 -82 -114 -127
-129 -173 l-9 -29 -19 22 c-23 26 -53 28 -71 5 -12 -16 -13 -13 -14 25 0 32
10 61 35 105 45 82 127 170 151 165 11 -2 18 -10 17 -16 -2 -7 6 -12 17 -12
11 0 20 7 20 15 0 8 11 17 25 21 53 13 13 44 -57 44 -52 0 -81 -18 -108 -68
-18 -32 -40 -66 -106 -160 -22 -32 -59 -45 -84 -29 -11 6 -20 19 -20 28 0 34
49 154 71 171 26 22 35 17 20 -10 -27 -50 -10 -54 37 -8 26 25 56 53 67 61 19
14 18 14 -12 9 -20 -4 -33 -2 -33 4 0 17 30 35 68 42 l37 6 -30 16 c-66 34
-72 33 -124 -21z m72 -445 c7 -18 -1 -26 -25 -26 -20 0 -21 1 -12 24 8 20 30
21 37 2z m55 -84 l-4 -27 -11 27 c-7 14 -17 30 -24 34 -9 5 -7 9 7 14 24 9 37
-11 32 -48z m-1 -64 c-3 -7 -5 -2 -5 12 0 14 2 19 5 13 2 -7 2 -19 0 -25z"/>
<path d="M5870 3109 c0 -5 9 -9 20 -9 11 0 20 2 20 4 0 2 -9 6 -20 9 -11 3
-20 1 -20 -4z"/>
<path d="M5965 3020 c-8 -16 -15 -37 -15 -46 0 -20 -28 -43 -52 -44 -21 0 -23
-19 -5 -44 13 -17 16 -17 68 -1 30 9 72 23 94 29 22 7 40 19 40 27 0 8 -7 12
-15 10 -8 -2 -32 -6 -54 -9 l-39 -5 7 57 c8 63 -4 74 -29 26z"/>
<path d="M5178 2993 c7 -3 16 -2 19 1 4 3 -2 6 -13 5 -11 0 -14 -3 -6 -6z"/>
<path d="M5867 2802 c-21 -23 -22 -52 -3 -52 12 0 76 32 96 47 2 2 -2 8 -10
13 -24 16 -66 11 -83 -8z"/>
<path d="M6121 2678 c1 -16 17 -55 20 -48 8 21 3 60 -8 60 -7 0 -13 -6 -12
-12z"/>
<path d="M5235 1891 c16 -8 17 -10 3 -10 -26 -1 -32 -21 -12 -37 15 -13 16
-15 3 -11 -15 5 -16 -9 -15 -126 1 -100 4 -131 14 -129 6 1 12 -3 12 -8 0 -5
-7 -10 -15 -10 -8 0 -15 -4 -15 -10 0 -12 37 -14 44 -2 2 4 6 62 7 127 1 66 6
128 11 139 7 13 6 21 -3 27 -8 5 -14 19 -14 31 0 15 -7 23 -20 25 l-20 3 20
-9z"/>
<path d="M5240 1414 c0 -8 5 -12 10 -9 6 4 8 11 5 16 -9 14 -15 11 -15 -7z"/>
<path d="M5200 1290 c-13 -8 -12 -10 3 -10 9 0 17 5 17 10 0 12 -1 12 -20 0z"/>
<path d="M5772 430 c0 -14 2 -19 5 -12 2 6 2 18 0 25 -3 6 -5 1 -5 -13z"/>
<path d="M5766 365 c-3 -9 -6 -25 -6 -35 0 -10 -6 -20 -12 -23 -7 -2 -10 -8
-6 -12 14 -14 45 24 42 51 -3 33 -10 39 -18 19z"/>
<path d="M5763 272 c-8 -5 -8 -12 2 -25 8 -11 16 -14 20 -8 9 15 -8 41 -22 33z"/>
<path d="M5895 256 c-18 -13 -18 -15 -2 -39 9 -15 17 -33 17 -41 0 -24 -22
-66 -31 -60 -5 3 -9 -19 -10 -48 0 -29 -3 -47 -6 -40 -2 6 -11 12 -19 12 -8 0
-14 5 -14 10 0 6 -9 10 -20 10 -15 0 -19 -6 -17 -30 l2 -30 123 0 123 0 -6 77
c-10 128 -83 221 -140 179z"/>
<path d="M5766 187 c-5 -22 20 -87 35 -87 14 0 11 17 -6 34 -12 12 -13 20 -5
35 13 25 13 28 -4 34 -9 4 -16 -3 -20 -16z"/>
<path d="M5836 101 c-3 -5 1 -14 9 -21 13 -10 15 -9 15 9 0 21 -14 28 -24 12z"/>
<path d="M5755 80 c-3 -5 -1 -10 4 -10 6 0 11 5 11 10 0 6 -2 10 -4 10 -3 0
-8 -4 -11 -10z"/>
<path d="M5735 48 c4 -13 13 -30 21 -38 12 -12 14 -10 14 17 0 19 -6 33 -16
37 -24 9 -26 8 -19 -16z"/>
<path d="M3073 3 c9 -2 25 -2 35 0 9 3 1 5 -18 5 -19 0 -27 -2 -17 -5z"/>
</g>
</svg>
