<svg width="122" height="118" viewBox="0 0 122 118" fill="none" xmlns="http://www.w3.org/2000/svg">
<path d="M29.4687 59C29.4916 70.9554 26.7199 82.7506 21.375 93.4447C21.0874 94.0235 20.6438 94.5104 20.0942 94.8506C19.5447 95.1907 18.911 95.3706 18.2647 95.3698C17.6748 95.3686 17.095 95.2168 16.58 94.929C16.0651 94.6413 15.6321 94.2269 15.3219 93.7251C15.0117 93.2234 14.8345 92.6508 14.8073 92.0615C14.78 91.4723 14.9034 90.8858 15.1659 90.3575C20.0321 80.6222 22.5544 69.8838 22.5312 59C22.5199 52.9319 23.8787 46.9396 26.5064 41.47C29.1341 36.0004 32.9628 31.1946 37.707 27.4113C38.0627 27.1262 38.4711 26.9139 38.9088 26.7867C39.3465 26.6594 39.805 26.6196 40.2581 26.6695C40.7112 26.7195 41.15 26.8581 41.5495 27.0776C41.949 27.2972 42.3013 27.5932 42.5864 27.9489C42.8715 28.3046 43.0837 28.7129 43.211 29.1507C43.3382 29.5884 43.3781 30.0469 43.3281 30.4999C43.2782 30.953 43.1395 31.3919 42.92 31.7914C42.7005 32.1909 42.4044 32.5432 42.0487 32.8283C38.1158 35.9613 34.9416 39.9424 32.7632 44.4743C30.5849 49.0062 29.4587 53.9717 29.4687 59ZM63 55.5312C62.08 55.5312 61.1977 55.8967 60.5472 56.5472C59.8967 57.1977 59.5312 58.08 59.5312 59C59.5345 77.2142 54.9136 95.1311 46.1014 111.072C45.6552 111.877 45.5471 112.826 45.8008 113.711C46.0545 114.595 46.6492 115.343 47.4542 115.789C48.2592 116.235 49.2084 116.344 50.0931 116.09C50.9778 115.836 51.7255 115.241 52.1717 114.436C61.5527 97.4656 66.472 78.391 66.4687 59C66.4687 58.08 66.1033 57.1977 65.4528 56.5472C64.8023 55.8967 63.92 55.5312 63 55.5312ZM63 37.0312C57.1735 37.0312 51.5857 39.3458 47.4657 43.4657C43.3458 47.5857 41.0312 53.1735 41.0312 59C41.0312 59.92 41.3967 60.8023 42.0472 61.4528C42.6977 62.1033 43.58 62.4688 44.5 62.4688C45.42 62.4688 46.3022 62.1033 46.9528 61.4528C47.6033 60.8023 47.9687 59.92 47.9687 59C47.9687 55.0135 49.5524 51.1902 52.3713 48.3713C55.1902 45.5524 59.0135 43.9688 63 43.9688C66.9865 43.9688 70.8098 45.5524 73.6287 48.3713C76.4476 51.1902 78.0312 55.0135 78.0312 59C78.0779 77.5603 73.9878 95.8977 66.0583 112.679C65.8628 113.092 65.7505 113.539 65.7278 113.995C65.7051 114.451 65.7724 114.907 65.9259 115.337C66.0795 115.767 66.3162 116.162 66.6226 116.501C66.929 116.839 67.2991 117.114 67.7117 117.31C68.1243 117.505 68.5714 117.617 69.0275 117.64C69.4835 117.663 69.9395 117.596 70.3695 117.442C70.7996 117.288 71.1951 117.052 71.5336 116.745C71.8721 116.439 72.147 116.069 72.3425 115.656C80.71 97.944 85.0234 78.5891 84.9687 59C84.9687 53.1735 82.6542 47.5857 78.5342 43.4657C74.4143 39.3458 68.8265 37.0312 63 37.0312ZM63 0.03125C47.3657 0.0480833 32.3765 6.26625 21.3214 17.3214C10.2662 28.3765 4.04808 43.3657 4.03124 59C4.03629 64.9074 3.03532 70.7725 1.07124 76.3438C0.906526 76.776 0.829928 77.2368 0.845955 77.6991C0.861981 78.1614 0.97031 78.6158 1.16456 79.0356C1.35882 79.4554 1.63508 79.8321 1.97708 80.1436C2.31909 80.455 2.71994 80.6949 3.15604 80.8492C3.59213 81.0034 4.05468 81.0689 4.51645 81.0417C4.97822 81.0145 5.42989 80.8952 5.84488 80.6909C6.25987 80.4866 6.62981 80.2013 6.93291 79.8519C7.23602 79.5025 7.46617 79.0959 7.60984 78.6562C9.83942 72.3429 10.9754 65.6954 10.9687 59C10.9687 45.2005 16.4506 31.9661 26.2083 22.2084C35.9661 12.4506 49.2004 6.96875 63 6.96875C76.7995 6.96875 90.0339 12.4506 99.7916 22.2084C109.549 31.9661 115.031 45.2005 115.031 59C115.032 69.6429 114 80.2607 111.95 90.7044C111.771 91.6067 111.959 92.543 112.47 93.3073C112.982 94.0716 113.776 94.6014 114.679 94.7802C114.902 94.8203 115.128 94.8415 115.355 94.8438C116.158 94.8428 116.936 94.5634 117.556 94.0532C118.175 93.5429 118.599 92.8334 118.754 92.0456C120.894 81.1606 121.971 70.0934 121.969 59C121.95 43.3661 115.732 28.3779 104.677 17.3231C93.6221 6.26827 78.6338 0.0496104 63 0.03125ZM43.3437 74.1064C42.4422 73.9241 41.5051 74.1073 40.7386 74.6158C39.9721 75.1242 39.439 75.9163 39.2564 76.8178C37.354 86.1688 33.949 95.1497 29.1739 103.412C28.9461 103.806 28.7984 104.242 28.739 104.694C28.6797 105.146 28.7099 105.605 28.828 106.045C28.9461 106.485 29.1498 106.898 29.4274 107.26C29.7049 107.621 30.051 107.924 30.4458 108.152C30.8406 108.38 31.2763 108.528 31.7282 108.587C32.1801 108.646 32.6393 108.616 33.0795 108.498C33.5197 108.38 33.9323 108.176 34.2938 107.899C34.6553 107.621 34.9586 107.275 35.1864 106.88C40.3368 97.9626 44.0073 88.2689 46.0551 78.1764C46.2324 77.2774 46.0467 76.3449 45.5387 75.5823C45.0307 74.8197 44.2416 74.2892 43.3437 74.1064ZM63 18.5312C61.309 18.531 59.6196 18.6353 57.9414 18.8434C57.0283 18.9577 56.198 19.4299 55.6332 20.1563C55.0683 20.8828 54.8151 21.8038 54.9294 22.7169C55.0436 23.6299 55.5159 24.4602 56.2423 25.0251C56.9687 25.59 57.8897 25.8431 58.8028 25.7289C63.5234 25.1333 68.3168 25.5492 72.8643 26.949C77.4118 28.3487 81.6093 30.7002 85.178 33.8472C88.7466 36.9943 91.6047 40.8648 93.5621 45.2015C95.5196 49.5383 96.5317 54.2419 96.5312 59C96.5325 65.0415 96.1579 71.0772 95.4097 77.0722C95.2969 77.9844 95.5507 78.904 96.1155 79.6292C96.6802 80.3544 97.5097 80.8258 98.4217 80.9398C98.5661 80.9476 98.7109 80.9476 98.8553 80.9398C99.7008 80.9393 100.517 80.6299 101.15 80.0699C101.784 79.51 102.191 78.7379 102.295 77.8989C103.073 71.6292 103.465 65.3177 103.469 59C103.457 48.2708 99.1889 37.9845 91.6022 30.3978C84.0155 22.8111 73.7292 18.5435 63 18.5312ZM96.2075 92.6469C95.7664 92.533 95.3072 92.507 94.8561 92.5706C94.4049 92.6342 93.9708 92.786 93.5783 93.0174C93.1859 93.2488 92.8429 93.5552 92.5689 93.9191C92.2949 94.2831 92.0952 94.6975 91.9814 95.1386C91.1316 98.457 90.143 101.781 89.0561 105.019C88.7632 105.891 88.8289 106.844 89.2388 107.668C89.6486 108.492 90.369 109.12 91.2414 109.412C92.1138 109.705 93.0669 109.64 93.8909 109.23C94.7149 108.82 95.3423 108.1 95.6351 107.227C96.7914 103.828 97.8031 100.348 98.6992 96.8672C98.9275 95.9772 98.7934 95.0329 98.3263 94.2417C97.8591 93.4504 97.0971 92.8769 96.2075 92.6469Z" fill="#FF0000"/>
</svg>
